<?xml version="1.0" encoding="utf-8"?>
<!-- Generator: Adobe Illustrator 16.0.0, SVG Export Plug-In . SVG Version: 6.00 Build 0)  -->
<!DOCTYPE svg PUBLIC "-//W3C//DTD SVG 1.1 Tiny//EN" "http://www.w3.org/Graphics/SVG/1.1/DTD/svg11-tiny.dtd" [
	<!ENTITY ns_extend "http://ns.adobe.com/Extensibility/1.0/">
	<!ENTITY ns_ai "http://ns.adobe.com/AdobeIllustrator/10.0/">
	<!ENTITY ns_graphs "http://ns.adobe.com/Graphs/1.0/">
	<!ENTITY ns_vars "http://ns.adobe.com/Variables/1.0/">
	<!ENTITY ns_imrep "http://ns.adobe.com/ImageReplacement/1.0/">
	<!ENTITY ns_sfw "http://ns.adobe.com/SaveForWeb/1.0/">
	<!ENTITY ns_custom "http://ns.adobe.com/GenericCustomNamespace/1.0/">
	<!ENTITY ns_adobe_xpath "http://ns.adobe.com/XPath/1.0/">
]>
<svg version="1.1" baseProfile="tiny" xmlns:x="&ns_extend;" xmlns:i="&ns_ai;" xmlns:graph="&ns_graphs;"
	 xmlns="http://www.w3.org/2000/svg" xmlns:xlink="http://www.w3.org/1999/xlink" x="0px" y="0px" width="1920px" height="1080px"
	 viewBox="0 0 1920 1080" xml:space="preserve">
<metadata>
	<sfw  xmlns="&ns_sfw;">
		<slices></slices>
		<sliceSourceBounds  y="-1080" x="0" width="1920" height="1080" bottomLeftOrigin="true"></sliceSourceBounds>
	</sfw>
</metadata>
<g id="Layer_4">
	<rect fill="#2E3192" width="1920" height="1080"/>
</g>
<g id="Cotainers">
	<g>
		
			<rect x="165.396" y="551.058" transform="matrix(0.6787 0.7344 -0.7344 0.6787 539.2628 -103.4344)" fill="#FF0000" width="444.902" height="27.105"/>
		
			<rect x="746.551" y="493.433" transform="matrix(0.0582 0.9983 -0.9983 0.0582 1429.7355 -85.3514)" fill="#FF0000" width="27.106" height="443.302"/>
		
			<rect x="1329.253" y="305.696" transform="matrix(0.0924 0.9957 -0.9957 0.0924 1884.5176 -730.1825)" fill="#FF0000" width="27.104" height="725.952"/>
		
			<rect x="566.596" y="305.994" transform="matrix(0.0338 0.9994 -0.9994 0.0338 1020.3139 -416.3116)" fill="#FF0000" width="317.751" height="27.105"/>
		
			<rect x="450.866" y="-2.429" transform="matrix(0.5177 0.8555 -0.8555 0.5177 449.4488 -270.2319)" fill="#FF0000" width="27.105" height="531.942"/>
		
			<rect x="621.283" y="445.681" transform="matrix(0.7927 0.6096 -0.6096 0.7927 499.3299 -261.9749)" fill="#FF0000" width="27.105" height="314.95"/>
		
			<rect x="690.941" y="585.342" transform="matrix(0.8026 0.5966 -0.5966 0.8026 533.6015 -414.5118)" fill="#FF0000" width="404.187" height="27.106"/>
		
			<rect x="960.724" y="191.625" transform="matrix(0.1621 0.9868 -0.9868 0.1621 1248.8256 -594.1313)" fill="#FF0000" width="27.105" height="493.401"/>
		
			<rect x="987.235" y="-20.298" transform="matrix(0.5467 0.8373 -0.8373 0.5467 706.6221 -701.0569)" fill="#FF0000" width="27.106" height="644.772"/>
		<rect x="692" y="113" fill="#FF0000" width="579" height="27"/>
		
			<rect x="1240.047" y="84.767" transform="matrix(0.9741 0.2259 -0.2259 0.9741 87.4515 -276.9321)" fill="#FF0000" width="27.103" height="317.659"/>
		
			<rect x="1189.104" y="513.281" transform="matrix(0.9056 0.4242 -0.4242 0.9056 364.3831 -583.1853)" fill="#FF0000" width="605.913" height="27.106"/>
		<polygon fill="#0000FF" points="864.264,233.657 754.621,256.297 574.123,206.936 567.471,99.487 755.88,70.648 866.975,83.774 		
			"/>
		<polygon fill="#0000FF" points="1447.023,233.657 1337.379,256.297 1156.883,206.936 1150.23,99.487 1338.639,70.648 
			1449.733,83.774 		"/>
		<polygon fill="#0000FF" points="1392.813,481.668 1283.169,504.309 1102.673,454.947 1096.02,347.498 1284.429,318.66 
			1395.522,331.786 		"/>
		<polygon fill="#0000FF" points="861.553,550.786 751.91,573.427 571.412,524.065 564.761,416.616 753.168,387.778 
			864.264,400.903 		"/>
		<polygon fill="#0000FF" points="1155.644,773.048 1046,795.688 865.502,746.327 858.851,638.878 1047.259,610.039 
			1158.353,623.165 		"/>
		<polygon fill="#0000FF" points="696.212,801.508 586.569,824.147 406.071,774.787 399.419,667.337 587.828,638.499 
			698.923,651.625 		"/>
		<polygon fill="#0000FF" points="368.241,472.182 258.598,494.821 78.1,445.46 71.448,338.011 259.856,309.173 370.951,322.299 		
			"/>
		<polygon fill="#0000FF" points="1865.797,705.285 1756.152,727.925 1575.655,678.563 1569.003,571.115 1757.412,542.277 
			1868.507,555.402 		"/>
		<g>
			<g>
				<path fill="#FFFFFF" d="M259.104,305.671l-0.991-0.176l-1,0.173L75.59,337.452v104.33l181.523,48.752l0.735,0.199l1.077,0.285
					c0.007,0.054,0.022,0.086,0.026,0.126l108.322-25.923V325.296L259.104,305.671z M257.113,488.479L77.575,440.266v-101.15
					l179.539-31.433V488.479z M365.287,463.654l-106.183,25.411V307.687l106.183,19.269V463.654L365.287,463.654z"/>
				<path fill="#FFFFFF" d="M314.779,471.79l2.949-0.684l1.983-0.464l43.663-10.178v-39.855v-1.997v-85.767l-96.701-13.385v163.561
					l46.125-10.764L314.779,471.79z M325.055,329.541l36.329,5.033v5.921l-36.329-4.153V329.541z M325.055,338.341l36.329,4.148
					v28.037l-36.329-0.385V338.341z M325.055,372.131l36.329,0.387v6.52h-36.329V372.131z M325.055,381.024h36.329v32.072
					l-36.329,2.12V381.024z M325.055,417.209l36.329-2.119v3.717l-36.329,3.548V417.209z M325.055,424.353l36.329-3.556V448.6
					l-36.329,6.943V424.353z M325.055,457.564l36.329-6.943v8.261l-36.329,8.476V457.564z M319.71,458.586v-2.025v-31.687v-1.998
					v-5.353v-1.992v-34.506v-1.986v-6.96v-1.982V337.73v-1.999v-6.93l3.354,0.466v6.85v1.994v32.016v1.986v6.924v1.986v34.314v1.989
					v5.223v1.999v31.373v2.021v9.869l-3.354,0.781V458.586z M314.779,459.534v-2.026v-32.147v-1.997v-5.556v-1.994v-34.79v-1.986
					v-7.011v-1.984v-32.875v-1.999v-7.047l2.949,0.409v6.974v1.999v32.572v1.981v6.982v1.986v34.619v1.997v5.435v1.993v31.87v2.03
					v10.104l-2.949,0.684V459.534z M268.653,321.739l44.141,6.111v7.094l-44.141-5.049V321.739L268.653,321.739z M268.653,331.892
					l44.141,5.048v33.078l-44.141-0.461V331.892L268.653,331.892z M268.653,371.547l44.141,0.459v7.031h-44.141V371.547z
					 M268.653,381.024h44.141v34.912l-44.141,2.575V381.024L268.653,381.024z M268.653,420.504l44.141-2.579v5.629l-44.141,4.317
					V420.504L268.653,420.504z M268.653,429.86l44.141-4.312v32.339l-44.141,8.44V429.86L268.653,429.86z M268.653,468.341
					l44.141-8.437v10.312l-44.141,10.299V468.341L268.653,468.341z"/>
				<path fill="#FFFFFF" d="M194.072,466.567l50.526,13.382l1.245,0.334V318.62l-9.081,1.339l-1.981,0.294L222.94,322l-1.981,0.288
					l-12.498,1.845l-1.985,0.292l-11.664,1.724l-1.985,0.295l-10.482,1.546l-1.985,0.294l-12.016,1.776l-1.984,0.294l-13.092,1.933
					l-1.986,0.293l-9.65,1.426l-1.991,0.294l-9.707,1.43l-1.981,0.295l-7.867,1.156l-1.985,0.298l-8.529,1.254h-1.087v0.165
					l-28.65,4.224l-0.849,0.129V436.1l113.847,30.163L194.072,466.567z M236.762,321.966l7.096-1.047v156.777l-7.096-1.879V321.966z
					 M222.94,324.007l11.84-1.746V475.3l-11.84-3.132V324.007z M208.457,326.142l12.499-1.84v147.342l-12.499-3.312V326.142z
					 M194.808,328.153l11.668-1.723v141.365l-11.668-3.083V328.153z M84.562,435.514l-3.595-0.959v-89.602l3.595-0.531V435.514z
					 M91.25,437.28l-4.707-1.25v-91.903l4.707-0.692V437.28z M100.287,439.675l-7.049-1.868v-94.663l7.049-1.048V439.675z
					 M108.472,441.84l-6.205-1.652v-98.38l6.205-0.915V441.84z M118.093,444.39l-7.628-2.021V340.6l7.628-1.125V444.39z
					 M127.945,446.994l-7.865-2.08V339.182l7.865-1.157V446.994z M139.639,450.101l-9.707-2.571v-109.8l9.707-1.434V450.101
					L139.639,450.101z M151.277,453.185l-9.65-2.563V336.002l9.65-1.424V453.185z M166.354,457.17l-13.092-3.461V334.29
					l13.092-1.933V457.17z M180.355,460.876l-12.016-3.177V332.058l12.016-1.77V460.876z M182.344,329.998l10.479-1.549v135.735
					l-10.479-2.775V329.998z"/>
			</g>
		</g>
		<g>
			<g>
				<path fill="#FFFFFF" d="M1756.859,542.51l-0.99-0.178l-1.003,0.172l-181.522,31.786v104.329l181.522,48.752l0.737,0.199
					l1.075,0.285c0.007,0.054,0.022,0.086,0.025,0.126l108.323-25.923V562.133L1756.859,542.51z M1754.866,725.317l-179.538-48.216
					V575.953l179.538-31.434V725.317z M1863.04,700.491l-106.181,25.41V544.523l106.181,19.27V700.491L1863.04,700.491z"/>
				<path fill="#FFFFFF" d="M1812.532,708.627l2.949-0.684l1.983-0.464l43.662-10.178v-39.855v-1.995v-85.769l-96.701-13.385
					v163.562l46.124-10.764L1812.532,708.627z M1822.81,566.378l36.329,5.034v5.919l-36.329-4.152V566.378z M1822.81,575.178
					l36.329,4.15v28.036l-36.329-0.386V575.178z M1822.81,608.97l36.329,0.386v6.52h-36.329V608.97z M1822.81,617.862h36.329v32.072
					l-36.329,2.119V617.862z M1822.81,654.047l36.329-2.12v3.72l-36.329,3.547V654.047z M1822.81,661.188l36.329-3.555v27.805
					l-36.329,6.942V661.188z M1822.81,694.402l36.329-6.941v8.261l-36.329,8.475V694.402z M1817.465,695.423v-2.024V661.71v-1.999
					v-5.352v-1.992v-34.505v-1.987v-6.959v-1.981v-32.366v-2v-6.93l3.354,0.467v6.851v1.994v32.016v1.986v6.923v1.987v34.314v1.987
					v5.225v1.997v31.374v2.021v9.869l-3.354,0.779V695.423z M1812.532,696.371v-2.025v-32.146v-1.998v-5.556v-1.995v-34.788v-1.987
					v-7.012v-1.984v-32.874v-1.999v-7.048l2.949,0.409v6.974v1.999v32.573v1.98v6.981v1.987v34.618v1.997v5.436v1.993v31.869v2.03
					v10.104l-2.949,0.682V696.371z M1766.406,558.576l44.141,6.111v7.094l-44.141-5.05V558.576L1766.406,558.576z M1766.406,568.729
					l44.141,5.049v33.077l-44.141-0.459V568.729L1766.406,568.729z M1766.406,608.385l44.141,0.46v7.03h-44.141V608.385z
					 M1766.406,617.862h44.141v34.912l-44.141,2.574V617.862L1766.406,617.862z M1766.406,657.342l44.141-2.58v5.631l-44.141,4.316
					V657.342L1766.406,657.342z M1766.406,666.697l44.141-4.312v32.337l-44.141,8.442V666.697L1766.406,666.697z M1766.406,705.178
					l44.141-8.437v10.312l-44.141,10.299V705.178L1766.406,705.178z"/>
				<path fill="#FFFFFF" d="M1691.826,703.405l50.527,13.381l1.243,0.334V555.458l-9.079,1.338l-1.981,0.295l-11.842,1.747
					l-1.981,0.289l-12.497,1.845l-1.986,0.291l-11.664,1.725l-1.984,0.295l-10.481,1.546l-1.986,0.295l-12.017,1.775l-1.984,0.295
					l-13.092,1.932l-1.985,0.294l-9.649,1.426l-1.991,0.294l-9.709,1.43l-1.981,0.295l-7.866,1.156l-1.983,0.299l-8.529,1.255
					h-1.087v0.164l-28.651,4.225l-0.848,0.128v92.847l113.846,30.162L1691.826,703.405z M1734.518,558.804l7.095-1.046v156.775
					l-7.095-1.88V558.804z M1720.694,560.844l11.842-1.745v153.039l-11.842-3.132V560.844z M1706.211,562.979l12.498-1.841v147.343
					l-12.498-3.312V562.979z M1692.562,564.991l11.668-1.724v141.364l-11.668-3.082V564.991z M1582.317,672.352l-3.597-0.961
					v-89.602l3.597-0.53V672.352z M1589.004,674.117l-4.706-1.25v-91.902l4.706-0.691V674.117z M1598.041,676.512l-7.051-1.864
					v-94.666l7.051-1.047V676.512z M1606.227,678.678l-6.203-1.652v-98.381l6.203-0.914V678.678z M1615.847,681.226l-7.63-2.02
					V577.438l7.63-1.126V681.226z M1625.7,683.831l-7.867-2.079V576.019l7.867-1.155V683.831z M1637.395,686.939l-9.709-2.572
					V574.568l9.709-1.435V686.939L1637.395,686.939z M1649.031,690.022l-9.65-2.562V572.839l9.65-1.423V690.022z M1664.107,694.007
					l-13.09-3.46v-119.42l13.09-1.932V694.007z M1678.109,697.715l-12.016-3.179v-125.64l12.016-1.771V697.715z M1680.1,566.835
					l10.477-1.55V701.02l-10.477-2.773V566.835z"/>
			</g>
		</g>
		<g>
			<g>
				<path fill="#FFFFFF" d="M1283.994,312.6l-0.99-0.177l-1.002,0.172l-181.523,31.786v104.33l181.523,48.752l0.735,0.2l1.077,0.283
					c0.007,0.053,0.022,0.086,0.026,0.127l108.321-25.925V332.224L1283.994,312.6z M1282.002,495.406l-179.537-48.213v-101.15
					l179.537-31.433V495.406z M1390.177,470.583l-106.183,25.409V314.614l106.183,19.27V470.583L1390.177,470.583z"/>
				<path fill="#FFFFFF" d="M1339.668,478.718l2.949-0.684l1.982-0.463l43.663-10.178v-39.855v-1.999v-85.766l-96.7-13.385v163.56
					l46.124-10.763L1339.668,478.718z M1349.945,336.468l36.329,5.034v5.92l-36.329-4.153V336.468z M1349.945,345.269l36.329,4.15
					v28.036l-36.329-0.383V345.269z M1349.945,379.059l36.329,0.386v6.521h-36.329V379.059z M1349.945,387.953h36.329v32.072
					l-36.329,2.12V387.953z M1349.945,424.137l36.329-2.118v3.716l-36.329,3.547V424.137z M1349.945,431.281l36.329-3.557v27.803
					l-36.329,6.944V431.281z M1349.945,464.493l36.329-6.943v8.261l-36.329,8.477V464.493z M1344.6,465.515v-2.026v-31.688v-1.997
					v-5.354v-1.992v-34.506v-1.987v-6.96v-1.983v-32.364v-1.999v-6.93l3.355,0.465v6.851v1.995v32.015v1.986v6.923v1.987v34.314
					v1.989v5.223v1.999v31.373v2.021v9.868l-3.355,0.781V465.515z M1339.668,466.462v-2.025V432.29v-1.999v-5.556v-1.993v-34.789
					v-1.987v-7.01v-1.986v-32.874v-2v-7.047l2.949,0.408v6.975v1.999v32.571v1.983v6.981v1.987v34.62v1.996v5.434v1.995v31.869
					v2.029V476l-2.949,0.685V466.462z M1293.543,328.667l44.14,6.111v7.094l-44.14-5.05V328.667L1293.543,328.667z
					 M1293.543,338.819l44.14,5.048v33.079l-44.14-0.46V338.819L1293.543,338.819z M1293.543,378.476l44.14,0.459v7.031h-44.14
					V378.476z M1293.543,387.953h44.14v34.912l-44.14,2.575V387.953L1293.543,387.953z M1293.543,427.432l44.14-2.58v5.63
					l-44.14,4.316V427.432L1293.543,427.432z M1293.543,436.788l44.14-4.313v32.339l-44.14,8.441V436.788L1293.543,436.788z
					 M1293.543,475.269l44.14-8.436v10.312l-44.14,10.299V475.269L1293.543,475.269z"/>
				<path fill="#FFFFFF" d="M1218.961,473.495l50.526,13.383l1.245,0.333V325.548l-9.08,1.339l-1.981,0.293l-11.842,1.749
					l-1.981,0.288l-12.497,1.845l-1.984,0.291l-11.665,1.724l-1.985,0.294l-10.481,1.547l-1.984,0.295l-12.017,1.775l-1.985,0.294
					l-13.093,1.933l-1.984,0.292l-9.649,1.427l-1.993,0.294l-9.707,1.43l-1.98,0.294l-7.868,1.156l-1.983,0.298l-8.527,1.256h-1.088
					v0.164l-28.651,4.225l-0.848,0.128v92.848l113.846,30.163L1218.961,473.495z M1261.652,328.894l7.095-1.047v156.777
					l-7.095-1.879V328.894z M1247.829,330.935l11.842-1.746v153.039l-11.842-3.131V330.935z M1233.347,333.07l12.498-1.841v147.343
					l-12.498-3.312V333.07z M1219.698,335.082l11.668-1.723v141.365l-11.668-3.083V335.082z M1109.452,442.442l-3.595-0.959V351.88
					l3.595-0.53V442.442z M1116.14,444.208l-4.705-1.25v-91.903l4.705-0.69V444.208z M1125.177,446.604l-7.051-1.869v-94.663
					l7.051-1.047V446.604z M1133.363,448.768l-6.205-1.652v-98.38l6.205-0.914V448.768z M1142.982,451.317l-7.629-2.021V347.528
					l7.629-1.125V451.317z M1152.834,453.92l-7.864-2.078V346.109l7.864-1.156V453.92z M1164.528,457.029l-9.707-2.571v-109.8
					l9.707-1.434V457.029L1164.528,457.029z M1176.168,460.112l-9.652-2.562V342.93l9.652-1.424V460.112z M1191.244,464.099
					l-13.092-3.461V341.218l13.092-1.933V464.099z M1205.245,467.804l-12.016-3.177V338.987l12.016-1.771V467.804z
					 M1207.234,336.926l10.478-1.55v135.735l-10.478-2.775V336.926z"/>
			</g>
		</g>
		<g>
			<g>
				<path fill="#FFFFFF" d="M756.266,68.114l-0.99-0.176l-1.001,0.172L572.751,99.896v104.33l181.523,48.751l0.736,0.201
					l1.077,0.283c0.007,0.055,0.021,0.088,0.025,0.127l108.324-25.923V87.74L756.266,68.114z M754.274,250.923l-179.538-48.213
					v-101.15l179.538-31.434V250.923z M862.448,226.098l-106.182,25.41V70.13l106.182,19.268V226.098L862.448,226.098z"/>
				<path fill="#FFFFFF" d="M811.941,234.232l2.948-0.682l1.983-0.463l43.662-10.178v-39.856v-1.997V95.29l-96.701-13.386v163.562
					l46.125-10.765L811.941,234.232z M822.217,91.984l36.33,5.034v5.919l-36.33-4.152V91.984z M822.217,100.785l36.33,4.147v28.037
					l-36.33-0.384V100.785z M822.217,134.575l36.33,0.387v6.521h-36.33V134.575z M822.217,143.468h36.33v32.073l-36.33,2.119
					V143.468z M822.217,179.652l36.33-2.118v3.717l-36.33,3.548V179.652z M822.217,186.796l36.33-3.555v27.803l-36.33,6.942V186.796
					z M822.217,220.008l36.33-6.943v8.261l-36.33,8.477V220.008z M816.873,221.029v-2.024v-31.688v-1.999v-5.353v-1.993v-34.506
					v-1.985v-6.961v-1.982v-32.365v-1.999v-6.929l3.354,0.466v6.85v1.994v32.016v1.986v6.925v1.985v34.313v1.989v5.223v1.999v31.373
					v2.021v9.869l-3.354,0.781V221.029z M811.941,221.978v-2.025v-32.147v-1.998v-5.556v-1.994v-34.79v-1.985v-7.012v-1.985V99.611
					v-2v-7.046l2.948,0.408v6.975v1.998v32.571v1.983v6.982v1.985v34.62v1.996v5.436v1.993v31.872v2.028v10.105l-2.948,0.683
					V221.978z M765.814,84.182l44.141,6.11v7.094l-44.141-5.048V84.182L765.814,84.182z M765.814,94.334l44.141,5.049v33.077
					l-44.141-0.46V94.334L765.814,94.334z M765.814,133.992l44.141,0.458v7.032h-44.141V133.992z M765.814,143.468h44.141v34.913
					l-44.141,2.574V143.468L765.814,143.468z M765.814,182.947l44.141-2.578v5.628l-44.141,4.316V182.947L765.814,182.947z
					 M765.814,192.304l44.141-4.313v32.339l-44.141,8.44V192.304L765.814,192.304z M765.814,230.784l44.141-8.436v10.312
					l-44.141,10.298V230.784L765.814,230.784z"/>
				<path fill="#FFFFFF" d="M691.233,229.01l50.528,13.383l1.243,0.334V81.063l-9.08,1.339l-1.981,0.295l-11.842,1.747l-1.98,0.289
					l-12.499,1.845l-1.984,0.292l-11.664,1.723l-1.985,0.295l-10.483,1.547l-1.985,0.293l-12.016,1.776l-1.984,0.294l-13.092,1.933
					l-1.986,0.293l-9.65,1.426l-1.992,0.295l-9.708,1.429l-1.98,0.294l-7.867,1.156l-1.984,0.299l-8.529,1.254h-1.087v0.164
					l-28.65,4.225l-0.849,0.128v92.847l113.847,30.163L691.233,229.01z M733.924,84.41l7.096-1.047v156.778l-7.096-1.879V84.41z
					 M720.101,86.45l11.842-1.746v153.04l-11.842-3.133V86.45z M705.619,88.585l12.499-1.839v147.341l-12.499-3.312V88.585z
					 M691.969,90.597l11.668-1.723v141.365l-11.668-3.083V90.597z M581.725,197.958l-3.595-0.961v-89.602l3.595-0.53V197.958z
					 M588.413,199.724l-4.707-1.25v-91.903l4.707-0.692V199.724z M597.449,202.119l-7.049-1.869v-94.663l7.049-1.046V202.119z
					 M605.634,204.283l-6.205-1.652V104.25l6.205-0.913V204.283z M615.254,206.834l-7.629-2.023V103.043l7.629-1.124V206.834z
					 M625.107,209.437l-7.865-2.08V101.625l7.865-1.156V209.437z M636.801,212.545l-9.708-2.572V100.173l9.708-1.433V212.545
					L636.801,212.545z M648.439,215.628l-9.65-2.564V98.445l9.65-1.424V215.628z M663.517,219.613l-13.092-3.461V96.732
					l13.092-1.932V219.613z M677.518,223.32l-12.017-3.177V94.501l12.017-1.768V223.32z M679.506,92.441l10.479-1.549v135.734
					l-10.479-2.775V92.441z"/>
			</g>
		</g>
		<g>
			<g>
				<path fill="#FFFFFF" d="M1342.112,68.115l-0.989-0.177l-1.002,0.172l-181.524,31.786v104.33l181.524,48.752l0.735,0.199
					l1.075,0.284c0.009,0.055,0.022,0.087,0.028,0.126l108.32-25.922V87.74L1342.112,68.115z M1340.121,250.924l-179.538-48.215
					V101.56l179.538-31.434V250.924z M1448.296,226.097l-106.184,25.412V70.13l106.184,19.27V226.097L1448.296,226.097z"/>
				<path fill="#FFFFFF" d="M1397.786,234.233l2.948-0.684l1.985-0.463l43.661-10.178v-39.856v-1.996V95.29l-96.7-13.384v163.561
					l46.125-10.765L1397.786,234.233z M1408.062,91.984l36.332,5.034v5.92l-36.332-4.153V91.984z M1408.062,100.785l36.332,4.15
					v28.035l-36.332-0.385V100.785z M1408.062,134.576l36.332,0.386v6.52h-36.332V134.576z M1408.062,143.468h36.332v32.072
					l-36.332,2.12V143.468z M1408.062,179.653l36.332-2.12v3.72l-36.332,3.547V179.653z M1408.062,186.795l36.332-3.554v27.804
					l-36.332,6.942V186.795z M1408.062,220.008l36.332-6.941v8.261l-36.332,8.476V220.008z M1402.72,221.03v-2.026v-31.688v-1.999
					v-5.352v-1.993v-34.504v-1.986v-6.959v-1.982v-32.366v-1.999v-6.929l3.353,0.466v6.85v1.995v32.016v1.987v6.923v1.986v34.314
					v1.988v5.225v1.997v31.374v2.021v9.87l-3.353,0.78V221.03z M1397.786,221.978v-2.026v-32.146v-1.997v-5.556v-1.994v-34.79
					v-1.986v-7.012v-1.983V99.611v-2v-7.047l2.948,0.409v6.975v1.999v32.573v1.981v6.981v1.986v34.619v1.997v5.436v1.993v31.87
					v2.029v10.104l-2.948,0.683V221.978z M1351.662,84.183l44.14,6.111v7.093l-44.14-5.049V84.183L1351.662,84.183z
					 M1351.662,94.335l44.14,5.049v33.077l-44.14-0.458V94.335L1351.662,94.335z M1351.662,133.991l44.14,0.46v7.031h-44.14V133.991
					z M1351.662,143.468h44.14v34.913l-44.14,2.574V143.468L1351.662,143.468z M1351.662,182.948l44.14-2.58v5.63l-44.14,4.317
					V182.948L1351.662,182.948z M1351.662,192.304l44.14-4.312v32.338l-44.14,8.441V192.304L1351.662,192.304z M1351.662,230.784
					l44.14-8.437v10.312l-44.14,10.299V230.784L1351.662,230.784z"/>
				<path fill="#FFFFFF" d="M1277.079,229.01l50.528,13.382l1.243,0.335V81.064l-9.079,1.338l-1.982,0.295l-11.841,1.747
					l-1.982,0.289l-12.497,1.844l-1.984,0.292l-11.664,1.724l-1.985,0.295l-10.481,1.547l-1.986,0.294l-12.016,1.775l-1.985,0.294
					l-13.092,1.934l-1.985,0.292l-9.649,1.426l-1.992,0.294l-9.707,1.43l-1.981,0.295l-7.867,1.156l-1.983,0.298l-8.528,1.255
					h-1.089v0.164l-28.651,4.225l-0.846,0.13v92.845l113.844,30.163L1277.079,229.01z M1319.771,84.41l7.095-1.047V240.14
					l-7.095-1.879V84.41z M1305.948,86.45l11.841-1.746v153.04l-11.841-3.133V86.45z M1291.466,88.585l12.497-1.84v147.342
					l-12.497-3.312V88.585z M1277.816,90.597l11.668-1.723v141.365l-11.668-3.082V90.597z M1167.57,197.958l-3.594-0.96v-89.601
					l3.594-0.53V197.958z M1174.259,199.723l-4.708-1.25v-91.903l4.708-0.691V199.723z M1183.295,202.119l-7.05-1.866v-94.664
					l7.05-1.049V202.119z M1191.48,204.284l-6.204-1.652v-98.381l6.204-0.915V204.284z M1201.101,206.833l-7.628-2.02V103.045
					l7.628-1.125V206.833z M1210.953,209.438l-7.865-2.08V101.625l7.865-1.156V209.438z M1222.647,212.545l-9.707-2.572v-109.8
					l9.707-1.434V212.545L1222.647,212.545z M1234.284,215.629l-9.649-2.562V98.446l9.649-1.423V215.629z M1249.362,219.614
					l-13.092-3.461V96.733l13.092-1.933V219.614z M1263.363,223.321l-12.016-3.179V94.502l12.016-1.77V223.321z M1265.354,92.441
					l10.478-1.549v135.735l-10.478-2.775V92.441z"/>
			</g>
		</g>
		<g>
			<g>
				<path fill="#FFFFFF" d="M591.455,635.333l-0.99-0.178l-1.001,0.175l-181.523,31.783v104.33l181.523,48.753l0.736,0.199
					l1.077,0.283c0.007,0.055,0.022,0.087,0.026,0.127l108.323-25.924V654.958L591.455,635.333z M589.464,818.141l-179.538-48.212
					V668.777l179.538-31.433V818.141z M697.639,793.316l-106.184,25.41v-181.38l106.184,19.269V793.316L697.639,793.316z"/>
				<path fill="#FFFFFF" d="M647.13,801.451l2.949-0.683l1.983-0.464l43.663-10.178v-39.855v-1.997v-85.766l-96.702-13.386v163.561
					l46.126-10.765L647.13,801.451z M657.407,659.202l36.329,5.035v5.919l-36.329-4.152V659.202z M657.407,668.004l36.329,4.147
					v28.037l-36.329-0.384V668.004z M657.407,701.794l36.329,0.387v6.521h-36.329V701.794z M657.407,710.688h36.329v32.071
					l-36.329,2.121V710.688z M657.407,746.871l36.329-2.118v3.716l-36.329,3.549V746.871z M657.407,754.016l36.329-3.556v27.803
					l-36.329,6.942V754.016z M657.407,787.226l36.329-6.942v8.261l-36.329,8.479V787.226z M652.062,788.249v-2.026v-31.687v-1.998
					v-5.353v-1.993v-34.505v-1.986v-6.962v-1.981v-32.365v-1.999v-6.929l3.354,0.465v6.851v1.993v32.017v1.986v6.925v1.986V745
					v1.989v5.223v1.998v31.374v2.021v9.868l-3.354,0.78V788.249z M647.13,789.196v-2.026v-32.147v-1.996v-5.557v-1.993v-34.789
					v-1.986v-7.013v-1.984V666.83v-2v-7.047l2.949,0.407v6.976v1.999v32.571v1.981v6.983v1.986v34.618v1.996v5.437v1.992v31.872
					v2.029v10.104l-2.949,0.683V789.196z M601.005,651.4l44.14,6.11v7.094l-44.14-5.047V651.4L601.005,651.4z M601.005,661.553
					l44.14,5.049v33.079l-44.14-0.461V661.553L601.005,661.553z M601.005,701.209l44.14,0.461v7.031h-44.14V701.209z
					 M601.005,710.688h44.14v34.911l-44.14,2.574V710.688L601.005,710.688z M601.005,750.166l44.14-2.578v5.629l-44.14,4.315
					V750.166L601.005,750.166z M601.005,759.523l44.14-4.313v32.34l-44.14,8.438V759.523L601.005,759.523z M601.005,798.002
					l44.14-8.437v10.313l-44.14,10.299V798.002L601.005,798.002z"/>
				<path fill="#FFFFFF" d="M526.423,796.229l50.527,13.383l1.245,0.335V648.282l-9.081,1.341l-1.981,0.293l-11.841,1.746
					l-1.98,0.289l-12.498,1.845l-1.985,0.293l-11.664,1.723l-1.985,0.295l-10.482,1.548l-1.985,0.293l-12.016,1.777l-1.985,0.293
					l-13.092,1.933l-1.985,0.293l-9.65,1.426l-1.992,0.296l-9.707,1.429l-1.981,0.294l-7.867,1.156l-1.984,0.3l-8.529,1.255h-1.087
					v0.164l-28.65,4.225l-0.849,0.128v92.847l113.847,30.162L526.423,796.229z M569.114,651.628l7.096-1.047V807.36l-7.096-1.88
					V651.628z M555.291,653.669l11.841-1.745v153.039l-11.841-3.133V653.669z M540.809,655.804l12.498-1.84v147.341l-12.498-3.311
					V655.804z M527.159,657.815l11.668-1.723v141.364l-11.668-3.084V657.815z M416.915,765.177l-3.596-0.961v-89.601l3.596-0.531
					V765.177z M423.602,766.942l-4.707-1.249V673.79l4.707-0.692V766.942z M432.639,769.338l-7.049-1.868v-94.662l7.049-1.048
					V769.338z M440.823,771.502l-6.204-1.651v-98.382l6.204-0.913V771.502z M450.444,774.053l-7.629-2.022V670.262l7.629-1.123
					V774.053z M460.297,776.656l-7.865-2.08V668.844l7.865-1.157V776.656z M471.991,779.764l-9.707-2.571v-109.8l9.707-1.434
					V779.764L471.991,779.764z M483.629,782.847l-9.65-2.563V665.664l9.65-1.425V782.847z M498.706,786.832l-13.092-3.461v-119.42
					l13.092-1.933V786.832z M512.707,790.539l-12.016-3.178V661.72l12.016-1.769V790.539z M514.696,659.66l10.479-1.55v135.735
					l-10.479-2.776V659.66z"/>
			</g>
		</g>
		<g>
			<g>
				<path fill="#FFFFFF" d="M1045.676,606.619l-0.99-0.178l-1.001,0.173l-181.522,31.785V742.73l181.522,48.751l0.735,0.198
					l1.075,0.285c0.009,0.054,0.023,0.085,0.028,0.125l108.322-25.922V626.243L1045.676,606.619z M1043.685,789.427l-179.539-48.214
					V640.063l179.539-31.434V789.427z M1151.858,764.602l-106.183,25.41V608.633l106.183,19.271V764.602L1151.858,764.602z"/>
				<path fill="#FFFFFF" d="M1101.35,772.737l2.949-0.685l1.983-0.463l43.662-10.179v-39.856v-1.994v-85.768l-96.7-13.385v163.561
					l46.125-10.764L1101.35,772.737z M1111.627,630.486l36.33,5.035v5.92l-36.33-4.152V630.486z M1111.627,639.288l36.33,4.15
					v28.035l-36.33-0.385V639.288z M1111.627,673.079l36.33,0.387v6.521h-36.33V673.079z M1111.627,681.972h36.33v32.072
					l-36.33,2.121V681.972z M1111.627,718.156l36.33-2.119v3.719l-36.33,3.548V718.156z M1111.627,725.299l36.33-3.555v27.804
					l-36.33,6.944V725.299z M1111.627,758.512l36.33-6.941v8.26l-36.33,8.477V758.512z M1106.282,759.534v-2.027v-31.688v-1.997
					v-5.353v-1.993v-34.505v-1.985v-6.961v-1.981v-32.365v-2.002v-6.929l3.354,0.466v6.851v1.997v32.014v1.987v6.924v1.985v34.313
					v1.988v5.224v1.997v31.375v2.021v9.869l-3.354,0.779V759.534z M1101.35,760.481v-2.027v-32.146v-1.996v-5.557v-1.994v-34.79
					v-1.985v-7.014v-1.983v-32.874v-1.999v-7.049l2.949,0.409v6.974v2v32.572v1.98v6.983v1.985v34.619v1.996v5.437v1.993v31.87v2.03
					v10.103l-2.949,0.683V760.481z M1055.226,622.687l44.139,6.112v7.094l-44.139-5.051V622.687L1055.226,622.687z
					 M1055.226,632.838l44.139,5.049v33.077l-44.139-0.459V632.838L1055.226,632.838z M1055.226,672.494l44.139,0.461v7.031h-44.139
					V672.494z M1055.226,681.972h44.139v34.912l-44.139,2.574V681.972L1055.226,681.972z M1055.226,721.451l44.139-2.579v5.631
					l-44.139,4.317V721.451L1055.226,721.451z M1055.226,730.807l44.139-4.312v32.339l-44.139,8.439V730.807L1055.226,730.807z
					 M1055.226,769.287l44.139-8.438v10.313l-44.139,10.3V769.287L1055.226,769.287z"/>
				<path fill="#FFFFFF" d="M980.644,767.515l50.526,13.381l1.245,0.336V619.568l-9.08,1.337l-1.982,0.296l-11.841,1.748
					l-1.981,0.288l-12.498,1.845l-1.984,0.29l-11.665,1.726l-1.984,0.295l-10.482,1.546l-1.985,0.293l-12.016,1.776l-1.985,0.294
					l-13.091,1.935l-1.986,0.292l-9.649,1.426l-1.992,0.295l-9.708,1.428l-1.981,0.296l-7.867,1.156l-1.983,0.299l-8.529,1.255
					h-1.088v0.163l-28.651,4.226l-0.848,0.13v92.846l113.847,30.161L980.644,767.515z M1023.335,622.913l7.095-1.046v156.777
					l-7.095-1.88V622.913z M1009.512,624.954l11.841-1.746v153.04l-11.841-3.133V624.954z M995.029,627.089l12.497-1.84v147.343
					l-12.497-3.313V627.089z M981.38,629.102l11.668-1.724v141.364l-11.668-3.081V629.102z M871.136,736.461l-3.598-0.961v-89.6
					l3.598-0.531V736.461z M877.821,738.227l-4.706-1.249v-91.903l4.706-0.691V738.227z M886.859,740.622l-7.049-1.866v-94.663
					l7.049-1.049V740.622z M895.044,742.787l-6.205-1.651v-98.381l6.205-0.915V742.787z M904.665,745.337l-7.628-2.022V641.548
					l7.628-1.124V745.337z M914.517,747.941l-7.865-2.08V640.129l7.865-1.156V747.941z M926.211,751.049l-9.708-2.571V638.679
					l9.708-1.434V751.049L926.211,751.049z M937.849,754.133l-9.651-2.562V636.949l9.651-1.423V754.133z M952.926,758.117
					l-13.092-3.461v-119.42l13.092-1.932V758.117z M966.928,761.825l-12.017-3.18v-125.64l12.017-1.77V761.825z M968.916,630.944
					l10.478-1.548v135.734l-10.478-2.776V630.944z"/>
			</g>
		</g>
		<g>
			<g>
				<path fill="#FFFFFF" d="M755.165,385.684l-0.99-0.177l-1.001,0.172l-181.524,31.786v104.33l181.524,48.752l0.735,0.198
					l1.076,0.284c0.008,0.053,0.022,0.087,0.026,0.126l108.323-25.924V405.308L755.165,385.684z M753.173,568.49l-179.539-48.212
					v-101.15l179.539-31.434V568.49z M861.347,543.667l-106.182,25.411v-181.38l106.182,19.27V543.667L861.347,543.667z"/>
				<path fill="#FFFFFF" d="M810.838,551.801l2.949-0.683l1.983-0.463l43.662-10.177v-39.856v-1.999v-85.766l-96.701-13.384v163.559
					l46.125-10.763L810.838,551.801z M821.115,409.553l36.33,5.035v5.918l-36.33-4.152V409.553z M821.115,418.354l36.33,4.149
					v28.036l-36.33-0.384V418.354z M821.115,452.143l36.33,0.386v6.522h-36.33V452.143z M821.115,461.037h36.33v32.073l-36.33,2.118
					V461.037z M821.115,497.221l36.33-2.118v3.716l-36.33,3.547V497.221z M821.115,504.365l36.33-3.555v27.801l-36.33,6.945V504.365
					z M821.115,537.576l36.33-6.943v8.261l-36.33,8.479V537.576z M815.771,538.598v-2.025v-31.687v-1.998v-5.352v-1.994v-34.505
					v-1.986v-6.961v-1.983v-32.364v-1.999v-6.93l3.354,0.465v6.851v1.996v32.016v1.985v6.924v1.986v34.315v1.988v5.222v1.999v31.375
					v2.02v9.867l-3.354,0.781V538.598z M810.838,539.545v-2.024v-32.147v-1.999v-5.556v-1.993v-34.789v-1.986v-7.011v-1.986V417.18
					v-2v-7.047l2.949,0.409v6.974v1.998v32.572v1.982v6.982v1.986v34.62v1.996v5.435v1.996v31.87v2.027v10.105l-2.949,0.684V539.545
					z M764.714,401.751l44.14,6.111v7.094l-44.14-5.049V401.751L764.714,401.751z M764.714,411.904l44.14,5.048v33.078l-44.14-0.461
					V411.904L764.714,411.904z M764.714,451.56l44.14,0.458v7.033h-44.14V451.56z M764.714,461.037h44.14v34.914l-44.14,2.572
					V461.037L764.714,461.037z M764.714,500.516l44.14-2.578v5.63l-44.14,4.315V500.516L764.714,500.516z M764.714,509.873
					l44.14-4.314V537.9l-44.14,8.44V509.873L764.714,509.873z M764.714,548.352l44.14-8.436v10.312l-44.14,10.3V548.352
					L764.714,548.352z"/>
				<path fill="#FFFFFF" d="M690.132,546.579l50.527,13.383l1.244,0.333V398.633l-9.08,1.338l-1.982,0.294L719,402.013l-1.981,0.289
					l-12.499,1.845l-1.985,0.292l-11.664,1.724l-1.985,0.295l-10.482,1.546l-1.985,0.295l-12.016,1.775l-1.985,0.294l-13.093,1.933
					l-1.985,0.293l-9.65,1.426l-1.992,0.294l-9.708,1.43l-1.981,0.293l-7.867,1.157l-1.984,0.299l-8.528,1.255h-1.087v0.165
					l-28.651,4.224l-0.847,0.128v92.847l113.845,30.163L690.132,546.579z M732.823,401.979l7.095-1.047V557.71l-7.095-1.88V401.979z
					 M719,404.019l11.841-1.746v153.038L719,552.18V404.019z M704.517,406.155l12.499-1.841v147.343l-12.499-3.312V406.155z
					 M690.869,408.166l11.667-1.723v141.364l-11.667-3.081V408.166z M580.623,515.527l-3.594-0.961v-89.601l3.594-0.531V515.527z
					 M587.311,517.292l-4.706-1.25V424.14l4.706-0.69V517.292z M596.347,519.688l-7.05-1.869v-94.663l7.05-1.047V519.688z
					 M604.533,521.851l-6.205-1.652v-98.38l6.205-0.913V521.851z M614.154,524.402l-7.63-2.022V420.613l7.63-1.125V524.402z
					 M624.005,527.004l-7.865-2.078V419.193l7.865-1.154V527.004z M635.7,530.115l-9.708-2.573V417.743l9.708-1.434V530.115
					L635.7,530.115z M647.337,533.195l-9.651-2.562v-114.62l9.651-1.423V533.195z M662.415,537.182l-13.092-3.459V414.301
					l13.092-1.931V537.182z M676.416,540.889l-12.016-3.178V412.072l12.016-1.771V540.889z M678.405,410.01l10.478-1.549v135.736
					l-10.478-2.777V410.01z"/>
			</g>
		</g>
	</g>
</g>
<g id="Blockfreight_x2122___x5B__BFT:XCP__x5D_">
	<g>
		<g>
			<path fill="#FFFFFF" d="M1070.914,867.165c4.585,0,8.771,0.403,12.544,1.216c3.779,0.808,7.017,2.135,9.716,3.979
				s4.791,4.297,6.271,7.355c1.487,3.055,2.229,6.833,2.229,11.327c0,4.86-1.102,8.905-3.304,12.146
				c-2.207,3.238-5.467,5.893-9.784,7.96c5.937,1.708,10.368,4.697,13.289,8.971c2.923,4.271,4.386,9.426,4.386,15.452
				c0,4.853-0.942,9.06-2.834,12.607c-1.888,3.562-4.432,6.464-7.621,8.708c-3.191,2.251-6.837,3.908-10.931,4.984
				c-4.093,1.084-8.296,1.623-12.612,1.623h-46.684v-96.328H1070.914z M1068.217,906.156c3.778,0,6.879-0.897,9.308-2.697
				c2.431-1.8,3.646-4.727,3.646-8.772c0-2.244-0.407-4.09-1.215-5.528c-0.812-1.44-1.892-2.565-3.241-3.377
				c-1.35-0.808-2.903-1.367-4.653-1.687c-1.753-0.311-3.575-0.47-5.467-0.47h-19.829v22.531H1068.217z M1069.431,947.036
				c2.067,0,4.049-0.203,5.934-0.61c1.892-0.406,3.552-1.077,4.994-2.023c1.437-0.938,2.582-2.219,3.438-3.842
				c0.853-1.622,1.283-3.692,1.283-6.206c0-4.948-1.395-8.48-4.184-10.597c-2.788-2.108-6.479-3.167-11.062-3.167h-23.069v26.445
				H1069.431z"/>
			<path fill="#FFFFFF" d="M1138.237,867.165v96.328h-19.16v-96.328H1138.237z"/>
			<path fill="#FFFFFF" d="M1153.752,913.512c1.705-4.543,4.135-8.415,7.285-11.606c3.148-3.19,6.924-5.666,11.335-7.419
				c4.404-1.756,9.35-2.633,14.838-2.633c5.481,0,10.455,0.877,14.907,2.633c4.452,1.753,8.253,4.229,11.4,7.419
				c3.148,3.191,5.578,7.063,7.283,11.606c1.712,4.541,2.567,9.599,2.567,15.17c0,5.584-0.855,10.616-2.567,15.11
				c-1.705,4.507-4.135,8.349-7.283,11.545c-3.147,3.188-6.948,5.643-11.4,7.348c-4.452,1.713-9.426,2.562-14.907,2.562
				c-5.488,0-10.434-0.85-14.838-2.562c-4.411-1.705-8.187-4.159-11.335-7.348c-3.15-3.196-5.58-7.038-7.285-11.545
				c-1.713-4.494-2.564-9.526-2.564-15.11C1151.188,923.11,1152.039,918.053,1153.752,913.512z M1171.157,936.85
				c0.538,2.652,1.46,5.033,2.762,7.146c1.305,2.12,3.036,3.807,5.197,5.063c2.157,1.262,4.856,1.891,8.094,1.891
				c3.238,0,5.955-0.629,8.163-1.891c2.196-1.257,3.955-2.943,5.266-5.063c1.299-2.112,2.221-4.493,2.76-7.146
				c0.538-2.651,0.808-5.374,0.808-8.168c0-2.782-0.27-5.53-0.808-8.229c-0.539-2.692-1.461-5.075-2.76-7.146
				c-1.311-2.067-3.069-3.755-5.266-5.062c-2.208-1.304-4.925-1.956-8.163-1.956c-3.237,0-5.937,0.652-8.094,1.956
				c-2.161,1.307-3.893,2.994-5.197,5.062c-1.302,2.07-2.224,4.453-2.762,7.146c-0.542,2.698-0.812,5.446-0.812,8.229
				C1170.346,931.476,1170.615,934.198,1171.157,936.85z"/>
			<path fill="#FFFFFF" d="M1269.101,906.29c-3.058,0-5.619,0.698-7.683,2.089c-2.071,1.399-3.759,3.197-5.063,5.401
				c-1.306,2.202-2.227,4.625-2.765,7.282c-0.539,2.657-0.813,5.284-0.813,7.894c0,2.52,0.274,5.082,0.813,7.69
				c0.538,2.616,1.418,4.968,2.633,7.086c1.215,2.112,2.849,3.842,4.925,5.188c2.065,1.353,4.591,2.028,7.553,2.028
				c4.584,0,8.115-1.287,10.593-3.848c2.471-2.567,4.021-6.002,4.655-10.317h18.48c-1.258,9.265-4.854,16.32-10.79,21.179
				c-5.942,4.854-13.543,7.284-22.807,7.284c-5.219,0-10.001-0.875-14.368-2.634c-4.356-1.753-8.073-4.201-11.126-7.349
				c-3.058-3.148-5.439-6.899-7.151-11.27c-1.711-4.355-2.562-9.149-2.562-14.368c0-5.392,0.784-10.406,2.359-15.038
				c1.573-4.633,3.889-8.634,6.947-12.009s6.792-6.002,11.196-7.894c4.405-1.888,9.45-2.833,15.11-2.833
				c4.137,0,8.115,0.538,11.945,1.619c3.818,1.08,7.241,2.719,10.252,4.928c3.015,2.202,5.464,4.946,7.354,8.228
				c1.891,3.287,2.962,7.171,3.231,11.672h-18.75C1282.01,910.294,1277.288,906.29,1269.101,906.29z"/>
			<path fill="#FFFFFF" d="M1334.134,867.165v51.672l24.147-25.093h22.669l-26.308,25.631l29.27,44.118h-23.202l-19.155-31.167
				l-7.421,7.157v24.01h-19.155v-96.328H1334.134z"/>
			<path fill="#FFFFFF" d="M1383.373,906.563v-12.819h11.473v-5.397c0-6.209,1.928-11.284,5.799-15.246
				c3.865-3.955,9.719-5.936,17.539-5.936c1.713,0,3.418,0.065,5.13,0.2c1.706,0.139,3.369,0.25,4.991,0.339v14.299
				c-2.256-0.266-4.59-0.401-7.019-0.401c-2.604,0-4.472,0.604-5.603,1.819c-1.119,1.215-1.682,3.265-1.682,6.142v4.182h13.225
				v12.819h-13.225v56.93h-19.156v-56.93H1383.373z"/>
			<path fill="#FFFFFF" d="M1453.793,893.744v12.954h0.274c0.892-2.16,2.107-4.162,3.639-6.009c1.526-1.84,3.28-3.418,5.261-4.719
				c1.981-1.305,4.094-2.312,6.343-3.037c2.245-0.718,4.59-1.08,7.02-1.08c1.251,0,2.651,0.227,4.179,0.677v17.806
				c-0.898-0.176-1.982-0.336-3.231-0.469c-1.265-0.136-2.479-0.204-3.646-0.204c-3.513,0-6.48,0.589-8.912,1.753
				c-2.422,1.174-4.379,2.767-5.864,4.788c-1.483,2.022-2.543,4.387-3.171,7.085c-0.628,2.699-0.945,5.626-0.945,8.768v31.437
				h-19.157v-69.749H1453.793z"/>
			<path fill="#FFFFFF" d="M1506.15,946.762c2.871,2.787,7.019,4.188,12.411,4.188c3.866,0,7.193-0.963,9.988-2.902
				c2.782-1.932,4.494-3.986,5.122-6.134h16.864c-2.698,8.36-6.841,14.339-12.411,17.941c-5.577,3.597-12.328,5.393-20.24,5.393
				c-5.488,0-10.437-0.875-14.841-2.634c-4.403-1.753-8.139-4.242-11.197-7.48c-3.058-3.243-5.416-7.103-7.085-11.604
				c-1.658-4.499-2.494-9.443-2.494-14.847c0-5.213,0.854-10.072,2.565-14.566c1.712-4.498,4.136-8.387,7.284-11.669
				c3.146-3.283,6.905-5.868,11.268-7.76c4.363-1.888,9.192-2.833,14.5-2.833c5.938,0,11.108,1.146,15.512,3.441
				c4.412,2.295,8.032,5.376,10.869,9.243c2.836,3.868,4.876,8.276,6.132,13.223c1.265,4.942,1.707,10.113,1.354,15.512h-50.323
				C1501.697,939.483,1503.266,943.978,1506.15,946.762z M1527.808,910.066c-2.298-2.516-5.786-3.776-10.46-3.776
				c-3.06,0-5.597,0.52-7.619,1.552c-2.028,1.034-3.644,2.318-4.859,3.847c-1.214,1.53-2.076,3.151-2.568,4.85
				c-0.489,1.713-0.783,3.245-0.873,4.597h31.162C1531.691,916.276,1530.1,912.59,1527.808,910.066z"/>
			<path fill="#FFFFFF" d="M1563.618,882.949v-15.784h19.162v15.784H1563.618z M1582.78,893.744v69.749h-19.162v-69.749H1582.78z"/>
			<path fill="#FFFFFF" d="M1663.792,968.621c-0.767,3.598-2.406,6.948-4.92,10.05c-2.525,3.104-6.164,5.738-10.933,7.898
				c-4.771,2.154-11.15,3.237-19.162,3.237c-3.411,0-6.895-0.432-10.449-1.28c-3.555-0.862-6.793-2.186-9.711-3.986
				c-2.935-1.801-5.357-4.118-7.291-6.947c-1.933-2.831-3.033-6.224-3.31-10.187h19.024c0.896,3.598,2.651,6.094,5.268,7.493
				c2.603,1.388,5.618,2.083,9.036,2.083c5.398,0,9.33-1.611,11.806-4.854c2.472-3.238,3.663-7.332,3.573-12.274v-9.18h-0.269
				c-2.07,3.691-5.015,6.415-8.833,8.169c-3.83,1.746-7.853,2.627-12.076,2.627c-5.219,0-9.72-0.923-13.495-2.764
				c-3.776-1.846-6.876-4.363-9.307-7.56c-2.43-3.19-4.206-6.924-5.332-11.191c-1.125-4.274-1.688-8.798-1.688-13.562
				c0-4.5,0.653-8.838,1.958-13.021c1.305-4.183,3.22-7.869,5.739-11.062c2.514-3.193,5.637-5.732,9.372-7.624
				c3.728-1.888,8.029-2.833,12.891-2.833c4.576,0,8.61,0.859,12.07,2.564c3.458,1.708,6.361,4.588,8.701,8.636h0.269v-9.31h18.217
				v65.302C1664.94,961.835,1664.558,965.025,1663.792,968.621z M1637.55,945.414c2.064-1.071,3.781-2.513,5.129-4.314
				c1.353-1.802,2.358-3.842,3.034-6.141c0.677-2.293,1.011-4.697,1.011-7.224c0-2.873-0.269-5.595-0.808-8.156
				c-0.545-2.562-1.442-4.836-2.693-6.812c-1.263-1.979-2.932-3.554-4.996-4.723c-2.071-1.166-4.681-1.754-7.828-1.754
				c-2.692,0-5.016,0.543-6.941,1.619c-1.939,1.077-3.561,2.541-4.859,4.388c-1.306,1.837-2.25,3.955-2.837,6.338
				c-0.581,2.381-0.88,4.883-0.88,7.491c0,2.519,0.252,5.015,0.748,7.487c0.497,2.477,1.347,4.703,2.561,6.678
				c1.216,1.976,2.813,3.598,4.794,4.854c1.976,1.262,4.453,1.892,7.415,1.892C1633.098,947.036,1635.479,946.492,1637.55,945.414z"
				/>
			<path fill="#FFFFFF" d="M1699.478,867.165v36.294h0.405c2.43-4.05,5.537-6.996,9.312-8.838c3.775-1.844,7.463-2.768,11.06-2.768
				c5.129,0,9.335,0.699,12.615,2.092c3.285,1.395,5.87,3.326,7.762,5.802c1.891,2.475,3.214,5.487,3.974,9.039
				c0.767,3.556,1.148,7.49,1.148,11.805v42.902h-19.162v-39.396c0-5.75-0.897-10.048-2.693-12.882
				c-1.802-2.837-4.99-4.248-9.58-4.248c-5.218,0-8.995,1.549-11.328,4.652c-2.348,3.1-3.513,8.212-3.513,15.313v36.56h-19.157
				v-96.328H1699.478z"/>
			<path fill="#FFFFFF" d="M1798.639,893.744v12.819h-14.033V941.1c0,3.243,0.543,5.393,1.621,6.475
				c1.077,1.077,3.238,1.615,6.469,1.615c1.085,0,2.119-0.035,3.105-0.131c0.994-0.09,1.941-0.222,2.838-0.407v14.842
				c-1.622,0.27-3.417,0.448-5.397,0.538c-1.98,0.096-3.909,0.138-5.801,0.138c-2.968,0-5.786-0.202-8.436-0.61
				c-2.653-0.4-4.985-1.185-7.01-2.358c-2.028-1.166-3.626-2.829-4.793-4.99c-1.168-2.16-1.753-4.99-1.753-8.504v-41.143h-11.604
				v-12.819h11.604v-20.912h19.156v20.912H1798.639z"/>
			<path fill="#FFFFFF" d="M1829.799,942.721v20.772h-21.184v-20.772H1829.799z"/>
		</g>
		<g>
			<path fill="#FFFFFF" d="M1025.537,986.33h10.975c2.022,0,3.647,0.466,4.868,1.393c1.225,0.936,1.834,2.329,1.834,4.208
				c0,1.138-0.277,2.112-0.837,2.927c-0.557,0.809-1.355,1.441-2.388,1.879v0.066c1.391,0.293,2.444,0.951,3.162,1.975
				c0.716,1.021,1.075,2.303,1.075,3.842c0,0.885-0.159,1.712-0.474,2.482c-0.316,0.772-0.811,1.437-1.486,1.994
				c-0.677,0.557-1.541,1.005-2.595,1.328c-1.054,0.322-2.307,0.491-3.765,0.491h-10.37V986.33z M1029.493,995.792h6.447
				c0.948,0,1.739-0.27,2.373-0.81c0.632-0.537,0.948-1.311,0.948-2.321c0-1.144-0.284-1.944-0.853-2.404
				c-0.571-0.463-1.392-0.695-2.469-0.695h-6.447V995.792z M1029.493,1005.689h6.986c1.2,0,2.133-0.312,2.801-0.929
				c0.661-0.627,0.993-1.508,0.993-2.65c0-1.114-0.332-1.976-0.993-2.572c-0.668-0.6-1.601-0.904-2.801-0.904h-6.986V1005.689z"/>
			<path fill="#FFFFFF" d="M1047.389,986.33h3.605v22.585h-3.605V986.33z"/>
			<path fill="#FFFFFF" d="M1062.412,1009.352c-1.311,0-2.475-0.215-3.498-0.641c-1.022-0.438-1.885-1.028-2.591-1.79
				c-0.706-0.759-1.244-1.663-1.615-2.723c-0.368-1.046-0.552-2.208-0.552-3.477c0-1.238,0.184-2.388,0.552-3.447
				c0.371-1.046,0.909-1.957,1.615-2.716c0.706-0.76,1.568-1.354,2.591-1.784c1.023-0.437,2.188-0.651,3.498-0.651
				c1.306,0,2.472,0.215,3.492,0.651c1.023,0.431,1.888,1.024,2.592,1.784c0.706,0.759,1.244,1.67,1.615,2.716
				c0.368,1.06,0.551,2.209,0.551,3.447c0,1.269-0.183,2.431-0.551,3.477c-0.371,1.06-0.909,1.964-1.615,2.723
				c-0.704,0.762-1.568,1.353-2.592,1.79C1064.884,1009.137,1063.718,1009.352,1062.412,1009.352z M1062.412,1006.51
				c0.799,0,1.496-0.167,2.083-0.504c0.593-0.34,1.077-0.783,1.457-1.335c0.377-0.544,0.658-1.159,0.838-1.842
				c0.177-0.689,0.27-1.382,0.27-2.107c0-0.694-0.093-1.395-0.27-2.088c-0.18-0.694-0.461-1.312-0.838-1.844
				c-0.38-0.539-0.864-0.981-1.457-1.316c-0.587-0.34-1.284-0.503-2.083-0.503c-0.805,0-1.502,0.163-2.088,0.503
				c-0.59,0.335-1.078,0.777-1.458,1.316c-0.376,0.532-0.655,1.149-0.838,1.844c-0.179,0.693-0.269,1.394-0.269,2.088
				c0,0.726,0.09,1.418,0.269,2.107c0.183,0.683,0.462,1.298,0.838,1.842c0.38,0.552,0.868,0.995,1.458,1.335
				C1060.91,1006.343,1061.607,1006.51,1062.412,1006.51z"/>
			<path fill="#FFFFFF" d="M1084.704,998.035c-0.146-1.012-0.553-1.778-1.217-2.292c-0.668-0.515-1.503-0.772-2.515-0.772
				c-0.466,0-0.963,0.077-1.486,0.239c-0.529,0.156-1.012,0.45-1.454,0.887c-0.443,0.424-0.813,1.028-1.11,1.795
				c-0.296,0.767-0.439,1.776-0.439,3.022c0,0.676,0.077,1.352,0.236,2.029c0.158,0.669,0.41,1.268,0.76,1.795
				c0.346,0.526,0.793,0.951,1.343,1.28c0.549,0.328,1.212,0.491,1.993,0.491c1.054,0,1.924-0.323,2.606-0.978
				c0.686-0.658,1.113-1.573,1.283-2.758h3.604c-0.339,2.137-1.141,3.764-2.418,4.89c-1.278,1.131-2.968,1.688-5.075,1.688
				c-1.287,0-2.417-0.215-3.398-0.641c-0.981-0.438-1.811-1.024-2.487-1.771c-0.673-0.747-1.185-1.646-1.531-2.675
				c-0.348-1.03-0.521-2.154-0.521-3.351c0-1.222,0.17-2.37,0.505-3.449c0.339-1.076,0.841-2.01,1.517-2.794
				c0.674-0.795,1.515-1.412,2.518-1.866c0.999-0.461,2.176-0.682,3.523-0.682c0.949,0,1.85,0.119,2.705,0.358
				c0.854,0.246,1.61,0.61,2.278,1.095c0.661,0.485,1.203,1.102,1.627,1.839c0.419,0.729,0.674,1.608,0.758,2.62H1084.704z"/>
			<path fill="#FFFFFF" d="M1091.345,986.33h3.603v12.842l6.517-6.612h4.426l-6.26,6.015l6.86,10.341h-4.395l-4.994-7.935
				l-2.154,2.089v5.846h-3.603V986.33z"/>
			<path fill="#FFFFFF" d="M1119.271,998.035c-0.149-1.012-0.558-1.778-1.218-2.292c-0.667-0.515-1.506-0.772-2.517-0.772
				c-0.464,0-0.96,0.077-1.487,0.239c-0.526,0.156-1.008,0.45-1.454,0.887c-0.442,0.424-0.813,1.028-1.107,1.795
				c-0.296,0.767-0.438,1.776-0.438,3.022c0,0.676,0.077,1.352,0.236,2.029c0.154,0.669,0.409,1.268,0.756,1.795
				c0.348,0.526,0.797,0.951,1.348,1.28c0.547,0.328,1.211,0.491,1.992,0.491c1.053,0,1.921-0.323,2.606-0.978
				c0.685-0.658,1.109-1.573,1.283-2.758h3.603c-0.337,2.137-1.143,3.764-2.421,4.89c-1.274,1.131-2.965,1.688-5.071,1.688
				c-1.287,0-2.421-0.215-3.402-0.641c-0.98-0.438-1.807-1.024-2.483-1.771c-0.673-0.747-1.186-1.646-1.532-2.675
				c-0.351-1.03-0.523-2.154-0.523-3.351c0-1.222,0.17-2.37,0.506-3.449c0.338-1.076,0.844-2.01,1.521-2.794
				c0.673-0.795,1.513-1.412,2.513-1.866c1.003-0.461,2.179-0.682,3.524-0.682c0.949,0,1.853,0.119,2.705,0.358
				c0.854,0.246,1.613,0.61,2.277,1.095c0.664,0.485,1.206,1.102,1.63,1.839c0.421,0.729,0.671,1.608,0.758,2.62H1119.271z"/>
			<path fill="#FFFFFF" d="M1125.814,986.33h3.603v8.383h0.065c0.443-0.734,1.102-1.352,1.975-1.849
				c0.874-0.49,1.854-0.741,2.928-0.741c1.792,0,3.201,0.466,4.236,1.389c1.033,0.926,1.55,2.321,1.55,4.175v11.229h-3.604v-10.281
				c-0.043-1.288-0.314-2.221-0.823-2.796c-0.506-0.579-1.297-0.867-2.37-0.867c-0.613,0-1.158,0.108-1.646,0.329
				c-0.485,0.223-0.896,0.526-1.233,0.916c-0.338,0.389-0.602,0.849-0.79,1.376c-0.191,0.533-0.287,1.09-0.287,1.676v9.647h-3.603
				V986.33z"/>
			<path fill="#FFFFFF" d="M1157.657,1005.276c0,0.443,0.061,0.76,0.174,0.951c0.116,0.186,0.341,0.282,0.679,0.282
				c0.104,0,0.234,0,0.381,0c0.149,0,0.317-0.02,0.506-0.067v2.502c-0.127,0.041-0.288,0.09-0.488,0.138
				c-0.203,0.055-0.406,0.108-0.616,0.149c-0.216,0.042-0.425,0.072-0.635,0.096c-0.209,0.019-0.392,0.024-0.538,0.024
				c-0.739,0-1.35-0.144-1.834-0.437c-0.481-0.299-0.802-0.814-0.949-1.551c-0.715,0.696-1.595,1.203-2.639,1.515
				c-1.044,0.316-2.053,0.473-3.02,0.473c-0.738,0-1.445-0.096-2.121-0.293c-0.674-0.203-1.27-0.497-1.783-0.887
				c-0.521-0.394-0.931-0.885-1.236-1.489c-0.305-0.599-0.46-1.298-0.46-2.102c0-1.011,0.186-1.83,0.556-2.471
				c0.368-0.628,0.854-1.126,1.455-1.479c0.601-0.365,1.277-0.622,2.024-0.778c0.749-0.155,1.5-0.28,2.26-0.364
				c0.655-0.127,1.274-0.21,1.865-0.271c0.592-0.054,1.112-0.137,1.567-0.261c0.451-0.132,0.811-0.324,1.073-0.594
				c0.264-0.263,0.396-0.658,0.396-1.179c0-0.467-0.111-0.85-0.332-1.143c-0.222-0.3-0.494-0.521-0.823-0.677
				c-0.325-0.156-0.688-0.264-1.088-0.318c-0.402-0.053-0.782-0.077-1.141-0.077c-1.013,0-1.844,0.209-2.499,0.629
				c-0.652,0.426-1.023,1.076-1.104,1.963h-3.608c0.066-1.054,0.32-1.928,0.764-2.621c0.442-0.7,1.002-1.258,1.69-1.683
				c0.685-0.418,1.46-0.718,2.321-0.885c0.868-0.168,1.751-0.251,2.661-0.251c0.798,0,1.588,0.083,2.37,0.251
				c0.779,0.167,1.478,0.442,2.103,0.825c0.62,0.377,1.122,0.868,1.502,1.472c0.377,0.594,0.568,1.33,0.568,2.197V1005.276z
				 M1154.056,1000.722c-0.551,0.358-1.228,0.575-2.025,0.651c-0.803,0.074-1.604,0.181-2.403,0.329
				c-0.38,0.061-0.748,0.157-1.107,0.271c-0.359,0.114-0.677,0.27-0.951,0.474c-0.272,0.197-0.488,0.466-0.646,0.788
				c-0.159,0.33-0.236,0.725-0.236,1.192c0,0.395,0.113,0.729,0.347,1.006c0.231,0.281,0.509,0.495,0.838,0.651
				s0.686,0.27,1.077,0.329c0.387,0.066,0.742,0.097,1.057,0.097c0.4,0,0.834-0.05,1.295-0.156c0.468-0.103,0.904-0.288,1.313-0.538
				c0.41-0.258,0.755-0.575,1.026-0.964c0.275-0.389,0.417-0.874,0.417-1.436V1000.722z"/>
			<path fill="#FFFFFF" d="M1161.644,986.33h3.602v3.423h-3.602V986.33z M1161.644,992.56h3.602v16.355h-3.602V992.56z"/>
			<path fill="#FFFFFF" d="M1169.169,992.56h3.417v2.411l0.062,0.061c0.548-0.903,1.263-1.615,2.148-2.138
				c0.886-0.514,1.867-0.771,2.941-0.771c1.792,0,3.202,0.466,4.236,1.389c1.035,0.926,1.551,2.321,1.551,4.175v11.229h-3.605
				v-10.281c-0.042-1.288-0.314-2.221-0.822-2.796c-0.507-0.579-1.296-0.867-2.37-0.867c-0.614,0-1.158,0.108-1.646,0.329
				c-0.485,0.223-0.896,0.526-1.233,0.916c-0.338,0.389-0.602,0.849-0.79,1.376c-0.191,0.533-0.287,1.09-0.287,1.676v9.647h-3.603
				V992.56z"/>
			<path fill="#FFFFFF" d="M1198.828,1003.66c0.101,1.06,0.502,1.796,1.202,2.221c0.694,0.418,1.526,0.629,2.496,0.629
				c0.335,0,0.724-0.024,1.155-0.078c0.436-0.054,0.837-0.149,1.215-0.3c0.383-0.144,0.693-0.365,0.933-0.652
				c0.245-0.282,0.353-0.658,0.335-1.119c-0.018-0.46-0.191-0.844-0.502-1.136c-0.317-0.3-0.725-0.533-1.222-0.72
				c-0.497-0.174-1.06-0.328-1.687-0.449c-0.641-0.131-1.281-0.268-1.935-0.418c-0.675-0.145-1.321-0.323-1.938-0.532
				c-0.627-0.216-1.185-0.498-1.682-0.856c-0.496-0.359-0.885-0.813-1.185-1.375c-0.293-0.564-0.442-1.252-0.442-2.071
				c0-0.886,0.215-1.628,0.646-2.233c0.437-0.598,0.98-1.082,1.646-1.447c0.664-0.371,1.399-0.634,2.214-0.778
				c0.809-0.15,1.586-0.221,2.328-0.221c0.838,0,1.646,0.09,2.411,0.269c0.772,0.18,1.467,0.467,2.089,0.867
				c0.623,0.401,1.143,0.923,1.551,1.568c0.412,0.641,0.669,1.417,0.771,2.322h-3.759c-0.173-0.867-0.562-1.442-1.19-1.734
				c-0.616-0.301-1.328-0.444-2.13-0.444c-0.252,0-0.551,0.019-0.898,0.061c-0.353,0.048-0.677,0.125-0.981,0.233
				c-0.306,0.119-0.562,0.293-0.771,0.508c-0.222,0.222-0.323,0.51-0.323,0.874c0,0.437,0.155,0.802,0.46,1.078
				c0.307,0.269,0.707,0.496,1.197,0.675c0.502,0.18,1.065,0.336,1.694,0.455c0.634,0.127,1.286,0.263,1.962,0.413
				c0.652,0.149,1.299,0.329,1.934,0.539c0.628,0.216,1.196,0.496,1.688,0.855c0.496,0.353,0.897,0.807,1.203,1.359
				c0.305,0.543,0.454,1.22,0.454,2.022c0,0.969-0.221,1.788-0.657,2.466c-0.443,0.676-1.018,1.221-1.731,1.646
				c-0.698,0.425-1.489,0.724-2.351,0.915c-0.861,0.192-1.718,0.281-2.567,0.281c-1.029,0-1.98-0.108-2.86-0.347
				c-0.873-0.228-1.633-0.581-2.269-1.054c-0.646-0.472-1.154-1.065-1.525-1.777c-0.365-0.7-0.562-1.539-0.581-2.514H1198.828z"/>
			<path fill="#FFFFFF" d="M1220.024,1009.352c-1.311,0-2.478-0.215-3.501-0.641c-1.018-0.438-1.885-1.028-2.591-1.79
				c-0.707-0.759-1.245-1.663-1.61-2.723c-0.364-1.046-0.557-2.208-0.557-3.477c0-1.238,0.192-2.388,0.557-3.447
				c0.365-1.046,0.903-1.957,1.61-2.716c0.706-0.76,1.573-1.354,2.591-1.784c1.023-0.437,2.19-0.651,3.501-0.651
				c1.305,0,2.466,0.215,3.488,0.651c1.024,0.431,1.886,1.024,2.598,1.784c0.706,0.759,1.245,1.67,1.61,2.716
				c0.371,1.06,0.556,2.209,0.556,3.447c0,1.269-0.185,2.431-0.556,3.477c-0.365,1.06-0.904,1.964-1.61,2.723
				c-0.712,0.762-1.573,1.353-2.598,1.79C1222.49,1009.137,1221.329,1009.352,1220.024,1009.352z M1220.024,1006.51
				c0.802,0,1.496-0.167,2.089-0.504c0.586-0.34,1.07-0.783,1.448-1.335c0.382-0.544,0.664-1.159,0.837-1.842
				c0.181-0.689,0.27-1.382,0.27-2.107c0-0.694-0.089-1.395-0.27-2.088c-0.173-0.694-0.455-1.312-0.837-1.844
				c-0.378-0.539-0.862-0.981-1.448-1.316c-0.593-0.34-1.287-0.503-2.089-0.503s-1.496,0.163-2.089,0.503
				c-0.593,0.335-1.077,0.777-1.46,1.316c-0.378,0.532-0.651,1.149-0.832,1.844c-0.186,0.693-0.27,1.394-0.27,2.088
				c0,0.726,0.084,1.418,0.27,2.107c0.181,0.683,0.454,1.298,0.832,1.842c0.383,0.552,0.867,0.995,1.46,1.335
				C1218.528,1006.343,1219.223,1006.51,1220.024,1006.51z"/>
			<path fill="#FFFFFF" d="M1231.364,986.33h3.609v22.585h-3.609V986.33z"/>
			<path fill="#FFFFFF" d="M1253.25,1008.915h-3.537v-2.28h-0.065c-0.437,0.819-1.102,1.483-1.976,1.975
				c-0.873,0.504-1.765,0.742-2.674,0.742c-2.148,0-3.705-0.532-4.662-1.592c-0.964-1.065-1.442-2.675-1.442-4.816V992.56h3.607
				v10.035c0,1.432,0.276,2.442,0.82,3.029c0.551,0.592,1.317,0.886,2.31,0.886c0.761,0,1.389-0.114,1.897-0.348
				c0.503-0.227,0.916-0.544,1.233-0.935c0.316-0.389,0.545-0.854,0.682-1.406c0.138-0.543,0.204-1.137,0.204-1.766v-9.496h3.603
				V1008.915z"/>
			<path fill="#FFFFFF" d="M1255.41,992.56h2.717v-4.896h3.604v4.896h3.261v2.692h-3.261v8.726c0,0.383,0.017,0.706,0.047,0.987
				c0.036,0.275,0.107,0.503,0.223,0.694c0.119,0.192,0.292,0.329,0.52,0.425c0.24,0.09,0.551,0.144,0.952,0.144
				c0.257,0,0.509-0.006,0.76-0.018c0.251-0.007,0.509-0.048,0.76-0.113v2.782c-0.401,0.048-0.789,0.09-1.173,0.126
				c-0.377,0.047-0.766,0.065-1.167,0.065c-0.952,0-1.712-0.091-2.298-0.27c-0.575-0.173-1.029-0.438-1.359-0.783
				c-0.328-0.354-0.544-0.79-0.663-1.317c-0.114-0.526-0.18-1.124-0.204-1.801v-9.647h-2.717V992.56z"/>
			<path fill="#FFFFFF" d="M1267.672,986.33h3.609v3.423h-3.609V986.33z M1267.672,992.56h3.609v16.355h-3.609V992.56z"/>
			<path fill="#FFFFFF" d="M1282.699,1009.352c-1.305,0-2.479-0.215-3.501-0.641c-1.018-0.438-1.878-1.028-2.591-1.79
				c-0.7-0.759-1.239-1.663-1.609-2.723c-0.366-1.046-0.558-2.208-0.558-3.477c0-1.238,0.191-2.388,0.558-3.447
				c0.37-1.046,0.909-1.957,1.609-2.716c0.713-0.76,1.573-1.354,2.591-1.784c1.022-0.437,2.196-0.651,3.501-0.651
				s2.465,0.215,3.495,0.651c1.022,0.431,1.879,1.024,2.591,1.784c0.707,0.759,1.245,1.67,1.616,2.716
				c0.365,1.06,0.55,2.209,0.55,3.447c0,1.269-0.185,2.431-0.55,3.477c-0.371,1.06-0.909,1.964-1.616,2.723
				c-0.712,0.762-1.568,1.353-2.591,1.79C1285.164,1009.137,1284.004,1009.352,1282.699,1009.352z M1282.699,1006.51
				c0.802,0,1.496-0.167,2.089-0.504c0.592-0.34,1.077-0.783,1.448-1.335c0.383-0.544,0.664-1.159,0.844-1.842
				c0.174-0.689,0.27-1.382,0.27-2.107c0-0.694-0.096-1.395-0.27-2.088c-0.18-0.694-0.461-1.312-0.844-1.844
				c-0.371-0.539-0.856-0.981-1.448-1.316c-0.593-0.34-1.287-0.503-2.089-0.503s-1.496,0.163-2.088,0.503
				c-0.593,0.335-1.078,0.777-1.455,1.316c-0.383,0.532-0.659,1.149-0.838,1.844c-0.18,0.693-0.27,1.394-0.27,2.088
				c0,0.726,0.09,1.418,0.27,2.107c0.179,0.683,0.455,1.298,0.838,1.842c0.377,0.552,0.862,0.995,1.455,1.335
				C1281.203,1006.343,1281.897,1006.51,1282.699,1006.51z"/>
			<path fill="#FFFFFF" d="M1293.95,992.56h3.416v2.411l0.066,0.061c0.545-0.903,1.264-1.615,2.149-2.138
				c0.88-0.514,1.866-0.771,2.944-0.771c1.788,0,3.201,0.466,4.229,1.389c1.03,0.926,1.551,2.321,1.551,4.175v11.229h-3.603v-10.281
				c-0.042-1.288-0.317-2.221-0.819-2.796c-0.51-0.579-1.3-0.867-2.377-0.867c-0.609,0-1.154,0.108-1.646,0.329
				c-0.485,0.223-0.897,0.526-1.233,0.916c-0.334,0.389-0.604,0.849-0.783,1.376c-0.191,0.533-0.293,1.09-0.293,1.676v9.647h-3.603
				V992.56z"/>
			<path fill="#FFFFFF" d="M1314.817,1003.66c0.107,1.06,0.509,1.796,1.203,2.221c0.694,0.418,1.532,0.629,2.501,0.629
				c0.335,0,0.725-0.024,1.155-0.078s0.832-0.149,1.215-0.3c0.377-0.144,0.688-0.365,0.934-0.652
				c0.24-0.282,0.354-0.658,0.335-1.119c-0.023-0.46-0.191-0.844-0.508-1.136c-0.318-0.3-0.725-0.533-1.221-0.72
				c-0.491-0.174-1.06-0.328-1.688-0.449c-0.634-0.131-1.28-0.268-1.927-0.418c-0.676-0.145-1.329-0.323-1.945-0.532
				c-0.622-0.216-1.179-0.498-1.682-0.856c-0.49-0.359-0.886-0.813-1.179-1.375c-0.3-0.564-0.448-1.252-0.448-2.071
				c0-0.886,0.215-1.628,0.652-2.233c0.431-0.598,0.975-1.082,1.639-1.447c0.671-0.371,1.406-0.634,2.221-0.778
				c0.809-0.15,1.58-0.221,2.322-0.221c0.838,0,1.645,0.09,2.418,0.269c0.766,0.18,1.46,0.467,2.088,0.867
				c0.623,0.401,1.138,0.923,1.544,1.568c0.419,0.641,0.671,1.417,0.777,2.322h-3.763c-0.168-0.867-0.563-1.442-1.186-1.734
				c-0.616-0.301-1.334-0.444-2.137-0.444c-0.244,0-0.551,0.019-0.897,0.061c-0.348,0.048-0.677,0.125-0.975,0.233
				c-0.312,0.119-0.569,0.293-0.779,0.508c-0.215,0.222-0.322,0.51-0.322,0.874c0,0.437,0.161,0.802,0.46,1.078
				c0.312,0.269,0.713,0.496,1.203,0.675c0.496,0.18,1.066,0.336,1.693,0.455c0.629,0.127,1.287,0.263,1.963,0.413
				c0.646,0.149,1.293,0.329,1.928,0.539c0.634,0.216,1.197,0.496,1.688,0.855c0.502,0.353,0.903,0.807,1.202,1.359
				c0.312,0.543,0.461,1.22,0.461,2.022c0,0.969-0.228,1.788-0.663,2.466c-0.438,0.676-1.018,1.221-1.729,1.646
				c-0.701,0.425-1.484,0.724-2.347,0.915c-0.867,0.192-1.724,0.281-2.567,0.281c-1.029,0-1.98-0.108-2.86-0.347
				c-0.874-0.228-1.634-0.581-2.274-1.054c-0.641-0.472-1.154-1.065-1.521-1.777c-0.37-0.7-0.568-1.539-0.586-2.514H1314.817z"/>
			<path fill="#FFFFFF" d="M1335.691,992.56h2.693v-1.358c0-1.031,0.124-1.868,0.383-2.515c0.245-0.639,0.586-1.136,1.011-1.484
				c0.419-0.346,0.898-0.573,1.437-0.692c0.539-0.121,1.102-0.18,1.694-0.18c1.153,0,1.999,0.084,2.524,0.228v2.812
				c-0.228-0.067-0.479-0.108-0.741-0.145c-0.265-0.029-0.575-0.041-0.928-0.041c-0.491,0-0.903,0.113-1.251,0.348
				c-0.348,0.227-0.527,0.682-0.527,1.356v1.671h3.07v2.692h-3.07v13.663h-3.602v-13.663h-2.693V992.56z"/>
			<path fill="#FFFFFF" d="M1354.764,1009.352c-1.305,0-2.478-0.215-3.501-0.641c-1.018-0.438-1.886-1.028-2.591-1.79
				c-0.7-0.759-1.238-1.663-1.61-2.723c-0.365-1.046-0.557-2.208-0.557-3.477c0-1.238,0.191-2.388,0.557-3.447
				c0.372-1.046,0.91-1.957,1.61-2.716c0.705-0.76,1.573-1.354,2.591-1.784c1.023-0.437,2.196-0.651,3.501-0.651
				s2.465,0.215,3.494,0.651c1.024,0.431,1.879,1.024,2.592,1.784c0.707,0.759,1.244,1.67,1.616,2.716
				c0.364,1.06,0.551,2.209,0.551,3.447c0,1.269-0.187,2.431-0.551,3.477c-0.372,1.06-0.909,1.964-1.616,2.723
				c-0.713,0.762-1.567,1.353-2.592,1.79C1357.229,1009.137,1356.068,1009.352,1354.764,1009.352z M1354.764,1006.51
				c0.803,0,1.496-0.167,2.089-0.504c0.586-0.34,1.076-0.783,1.448-1.335c0.383-0.544,0.664-1.159,0.844-1.842
				c0.173-0.689,0.269-1.382,0.269-2.107c0-0.694-0.096-1.395-0.269-2.088c-0.18-0.694-0.461-1.312-0.844-1.844
				c-0.372-0.539-0.862-0.981-1.448-1.316c-0.593-0.34-1.286-0.503-2.089-0.503c-0.802,0-1.496,0.163-2.089,0.503
				c-0.593,0.335-1.077,0.777-1.454,1.316c-0.383,0.532-0.658,1.149-0.838,1.844c-0.18,0.693-0.269,1.394-0.269,2.088
				c0,0.726,0.089,1.418,0.269,2.107c0.18,0.683,0.455,1.298,0.838,1.842c0.377,0.552,0.861,0.995,1.454,1.335
				C1353.268,1006.343,1353.962,1006.51,1354.764,1006.51z"/>
			<path fill="#FFFFFF" d="M1366.021,992.56h3.387v3.166h0.061c0.108-0.438,0.311-0.874,0.616-1.294
				c0.311-0.425,0.676-0.808,1.113-1.155c0.425-0.345,0.909-0.628,1.436-0.836c0.521-0.21,1.06-0.317,1.615-0.317
				c0.42,0,0.707,0.011,0.862,0.029c0.162,0.022,0.323,0.041,0.497,0.061v3.482c-0.258-0.042-0.516-0.077-0.778-0.114
				c-0.264-0.023-0.526-0.049-0.772-0.049c-0.616,0-1.189,0.128-1.729,0.373c-0.539,0.239-1.005,0.598-1.4,1.07
				c-0.401,0.479-0.719,1.06-0.957,1.76c-0.228,0.694-0.348,1.496-0.348,2.399v7.78h-3.603V992.56z"/>
			<path fill="#FFFFFF" d="M1401.059,1008.061c0,2.47-0.688,4.308-2.069,5.521c-1.383,1.209-3.37,1.819-5.962,1.819
				c-0.819,0-1.645-0.089-2.482-0.257c-0.832-0.174-1.592-0.455-2.273-0.855c-0.689-0.401-1.264-0.922-1.725-1.58
				c-0.467-0.653-0.741-1.46-0.826-2.406h3.608c0.108,0.509,0.283,0.923,0.533,1.239c0.257,0.311,0.557,0.562,0.903,0.741
				c0.354,0.174,0.729,0.293,1.161,0.348c0.419,0.048,0.856,0.078,1.323,0.078c1.454,0,2.519-0.359,3.188-1.077
				c0.677-0.718,1.019-1.747,1.019-3.1v-2.496h-0.066c-0.502,0.909-1.191,1.609-2.071,2.119c-0.873,0.501-1.818,0.76-2.831,0.76
				c-1.303,0-2.417-0.223-3.332-0.683c-0.922-0.454-1.676-1.072-2.28-1.867c-0.599-0.784-1.035-1.699-1.311-2.735
				c-0.274-1.028-0.407-2.137-0.407-3.315c0-1.096,0.162-2.143,0.503-3.129c0.336-0.993,0.819-1.868,1.454-2.616
				c0.634-0.748,1.406-1.34,2.322-1.782c0.916-0.443,1.957-0.664,3.118-0.664c1.028,0,1.98,0.215,2.843,0.651
				c0.867,0.431,1.525,1.108,1.992,2.034h0.066v-2.249h3.602V1008.061z M1393.059,1006.065c0.801,0,1.483-0.161,2.04-0.484
				c0.563-0.329,1.011-0.767,1.364-1.305c0.348-0.539,0.593-1.148,0.755-1.83c0.161-0.684,0.239-1.377,0.239-2.071
				c0-0.699-0.085-1.364-0.258-2.023c-0.167-0.658-0.425-1.233-0.771-1.741c-0.348-0.503-0.803-0.903-1.358-1.195
				c-0.558-0.301-1.228-0.444-2.011-0.444c-0.797,0-1.474,0.163-2.023,0.503c-0.55,0.335-0.987,0.777-1.328,1.316
				c-0.335,0.532-0.581,1.149-0.725,1.831c-0.149,0.683-0.221,1.365-0.221,2.041c0,0.67,0.083,1.335,0.251,1.975
				c0.167,0.646,0.425,1.216,0.771,1.724c0.348,0.502,0.797,0.916,1.335,1.232
				C1391.657,1005.904,1392.298,1006.065,1393.059,1006.065z"/>
			<path fill="#FFFFFF" d="M1404.793,986.33h3.609v22.585h-3.609V986.33z"/>
			<path fill="#FFFFFF" d="M1419.813,1009.352c-1.304,0-2.472-0.215-3.494-0.641c-1.018-0.438-1.884-1.028-2.598-1.79
				c-0.699-0.759-1.238-1.663-1.604-2.723c-0.37-1.046-0.562-2.208-0.562-3.477c0-1.238,0.192-2.388,0.562-3.447
				c0.365-1.046,0.904-1.957,1.604-2.716c0.714-0.76,1.58-1.354,2.598-1.784c1.022-0.437,2.19-0.651,3.494-0.651
				c1.312,0,2.473,0.215,3.496,0.651c1.022,0.431,1.884,1.024,2.592,1.784c0.711,0.759,1.25,1.67,1.614,2.716
				c0.365,1.06,0.551,2.209,0.551,3.447c0,1.269-0.186,2.431-0.551,3.477c-0.364,1.06-0.903,1.964-1.614,2.723
				c-0.708,0.762-1.569,1.353-2.592,1.79C1422.286,1009.137,1421.125,1009.352,1419.813,1009.352z M1419.813,1006.51
				c0.803,0,1.496-0.167,2.09-0.504c0.593-0.34,1.077-0.783,1.454-1.335c0.376-0.544,0.658-1.159,0.838-1.842
				c0.179-0.689,0.269-1.382,0.269-2.107c0-0.694-0.09-1.395-0.269-2.088c-0.18-0.694-0.462-1.312-0.838-1.844
				c-0.377-0.539-0.861-0.981-1.454-1.316c-0.594-0.34-1.287-0.503-2.09-0.503c-0.796,0-1.496,0.163-2.082,0.503
				c-0.592,0.335-1.077,0.777-1.46,1.316c-0.383,0.532-0.658,1.149-0.832,1.844c-0.186,0.693-0.27,1.394-0.27,2.088
				c0,0.726,0.084,1.418,0.27,2.107c0.174,0.683,0.449,1.298,0.832,1.842c0.383,0.552,0.868,0.995,1.46,1.335
				C1418.317,1006.343,1419.018,1006.51,1419.813,1006.51z"/>
			<path fill="#FFFFFF" d="M1431.16,986.33h3.608v8.354h0.062c0.257-0.402,0.556-0.755,0.92-1.078
				c0.358-0.317,0.755-0.586,1.187-0.802c0.425-0.222,0.886-0.395,1.357-0.515c0.473-0.108,0.944-0.167,1.406-0.167
				c1.286,0,2.407,0.221,3.369,0.682c0.957,0.454,1.759,1.071,2.388,1.866c0.627,0.784,1.107,1.713,1.424,2.761
				c0.318,1.059,0.474,2.189,0.474,3.386c0,1.103-0.144,2.161-0.425,3.189c-0.288,1.043-0.719,1.952-1.304,2.741
				c-0.576,0.791-1.306,1.424-2.19,1.896c-0.887,0.475-1.928,0.707-3.131,0.707c-0.55,0-1.1-0.03-1.664-0.102
				c-0.556-0.078-1.089-0.216-1.591-0.431c-0.517-0.216-0.97-0.484-1.384-0.826c-0.412-0.336-0.754-0.772-1.028-1.322h-0.061v2.244
				h-3.417V986.33z M1443.752,1000.752c0-0.729-0.103-1.454-0.294-2.143c-0.179-0.699-0.472-1.315-0.85-1.854
				c-0.377-0.539-0.856-0.971-1.418-1.3c-0.573-0.328-1.227-0.484-1.963-0.484c-1.515,0-2.663,0.526-3.435,1.574
				c-0.767,1.059-1.155,2.466-1.155,4.207c0,0.825,0.106,1.592,0.306,2.292c0.203,0.713,0.496,1.316,0.896,1.818
				c0.401,0.51,0.886,0.904,1.442,1.203c0.557,0.294,1.203,0.444,1.945,0.444c0.821,0,1.514-0.167,2.088-0.504
				c0.569-0.34,1.036-0.778,1.402-1.31c0.369-0.539,0.639-1.149,0.794-1.845C1443.675,1002.171,1443.752,1001.469,1443.752,1000.752
				z"/>
			<path fill="#FFFFFF" d="M1464.086,1005.276c0,0.443,0.062,0.76,0.168,0.951c0.12,0.186,0.354,0.282,0.689,0.282
				c0.101,0,0.228,0,0.375,0c0.145,0,0.318-0.02,0.51-0.067v2.502c-0.125,0.041-0.292,0.09-0.497,0.138
				c-0.197,0.055-0.407,0.108-0.615,0.149c-0.211,0.042-0.419,0.072-0.63,0.096c-0.209,0.019-0.387,0.024-0.537,0.024
				c-0.736,0-1.348-0.144-1.831-0.437c-0.485-0.299-0.803-0.814-0.952-1.551c-0.719,0.696-1.597,1.203-2.641,1.515
				c-1.039,0.316-2.046,0.473-3.021,0.473c-0.742,0-1.443-0.096-2.119-0.293c-0.676-0.203-1.269-0.497-1.783-0.887
				c-0.521-0.394-0.928-0.885-1.239-1.489c-0.305-0.599-0.455-1.298-0.455-2.102c0-1.011,0.182-1.83,0.553-2.471
				c0.369-0.628,0.859-1.126,1.453-1.479c0.604-0.365,1.274-0.622,2.022-0.778c0.749-0.155,1.502-0.28,2.268-0.364
				c0.647-0.127,1.269-0.21,1.862-0.271c0.593-0.054,1.113-0.137,1.566-0.261c0.456-0.132,0.809-0.324,1.073-0.594
				c0.262-0.263,0.4-0.658,0.4-1.179c0-0.467-0.114-0.85-0.336-1.143c-0.22-0.3-0.496-0.521-0.819-0.677
				c-0.329-0.156-0.694-0.264-1.094-0.318c-0.402-0.053-0.779-0.077-1.14-0.077c-1.011,0-1.842,0.209-2.499,0.629
				c-0.653,0.426-1.019,1.076-1.103,1.963h-3.603c0.054-1.054,0.311-1.928,0.754-2.621c0.443-0.7,1.012-1.258,1.693-1.683
				c0.683-0.418,1.454-0.718,2.322-0.885c0.868-0.168,1.754-0.251,2.657-0.251c0.801,0,1.592,0.083,2.369,0.251
				c0.784,0.167,1.484,0.442,2.101,0.825c0.628,0.377,1.125,0.868,1.502,1.472c0.383,0.594,0.574,1.33,0.574,2.197V1005.276z
				 M1460.483,1000.722c-0.55,0.358-1.22,0.575-2.026,0.651c-0.803,0.074-1.604,0.181-2.408,0.329
				c-0.369,0.061-0.747,0.157-1.101,0.271c-0.359,0.114-0.677,0.27-0.95,0.474c-0.277,0.197-0.486,0.466-0.652,0.788
				c-0.156,0.33-0.234,0.725-0.234,1.192c0,0.395,0.12,0.729,0.348,1.006c0.238,0.281,0.514,0.495,0.838,0.651
				c0.328,0.156,0.682,0.27,1.076,0.329c0.39,0.066,0.742,0.097,1.06,0.097c0.4,0,0.833-0.05,1.299-0.156
				c0.461-0.103,0.896-0.288,1.311-0.538c0.413-0.258,0.754-0.575,1.029-0.964c0.276-0.389,0.412-0.874,0.412-1.436V1000.722z"/>
			<path fill="#FFFFFF" d="M1468.066,986.33h3.609v22.585h-3.609V986.33z"/>
			<path fill="#FFFFFF" d="M1482.771,992.56h2.687v-1.358c0-1.031,0.125-1.868,0.384-2.515c0.251-0.639,0.592-1.136,1.011-1.484
				c0.42-0.346,0.898-0.573,1.436-0.692c0.539-0.121,1.108-0.18,1.695-0.18c1.153,0,2.004,0.084,2.53,0.228v2.812
				c-0.233-0.067-0.484-0.108-0.742-0.145c-0.264-0.029-0.581-0.041-0.933-0.041c-0.486,0-0.897,0.113-1.251,0.348
				c-0.349,0.227-0.521,0.682-0.521,1.356v1.671h3.063v2.692h-3.063v13.663h-3.609v-13.663h-2.687V992.56z"/>
			<path fill="#FFFFFF" d="M1494.35,992.56h3.388v3.166h0.06c0.102-0.438,0.305-0.874,0.617-1.294
				c0.306-0.425,0.676-0.808,1.107-1.155c0.424-0.345,0.914-0.628,1.437-0.836c0.526-0.21,1.064-0.317,1.615-0.317
				c0.419,0,0.712,0.011,0.867,0.029c0.155,0.022,0.323,0.041,0.491,0.061v3.482c-0.258-0.042-0.509-0.077-0.771-0.114
				c-0.265-0.023-0.527-0.049-0.777-0.049c-0.619,0-1.186,0.128-1.725,0.373c-0.539,0.239-1.006,0.598-1.407,1.07
				c-0.401,0.479-0.712,1.06-0.951,1.76c-0.229,0.694-0.347,1.496-0.347,2.399v7.78h-3.604V992.56z"/>
			<path fill="#FFFFFF" d="M1507.725,1001.673c0,0.629,0.084,1.239,0.271,1.831c0.179,0.593,0.448,1.107,0.808,1.55
				c0.354,0.443,0.808,0.803,1.357,1.065c0.545,0.259,1.205,0.391,1.957,0.391c1.061,0,1.903-0.228,2.55-0.683
				c0.641-0.449,1.12-1.126,1.437-2.035h3.418c-0.187,0.879-0.516,1.676-0.981,2.37c-0.462,0.7-1.018,1.281-1.677,1.753
				c-0.658,0.479-1.381,0.831-2.196,1.077c-0.807,0.246-1.663,0.359-2.55,0.359c-1.287,0-2.424-0.21-3.411-0.628
				c-0.993-0.419-1.829-1.012-2.514-1.771c-0.688-0.754-1.201-1.663-1.55-2.718c-0.353-1.059-0.52-2.213-0.52-3.482
				c0-1.155,0.184-2.257,0.551-3.298c0.371-1.047,0.891-1.963,1.578-2.753c0.689-0.795,1.516-1.417,2.484-1.885
				c0.97-0.466,2.07-0.693,3.292-0.693c1.286,0,2.441,0.269,3.458,0.809c1.024,0.536,1.867,1.243,2.545,2.128
				c0.676,0.887,1.173,1.904,1.472,3.053c0.31,1.148,0.388,2.341,0.239,3.561H1507.725z M1516.133,999.298
				c-0.035-0.562-0.161-1.118-0.358-1.64c-0.204-0.526-0.473-0.987-0.821-1.383c-0.346-0.383-0.776-0.701-1.268-0.944
				c-0.496-0.239-1.046-0.36-1.657-0.36c-0.635,0-1.21,0.108-1.729,0.329c-0.51,0.223-0.957,0.526-1.322,0.916
				c-0.372,0.389-0.664,0.849-0.888,1.376c-0.226,0.533-0.345,1.095-0.364,1.706H1516.133z"/>
			<path fill="#FFFFFF" d="M1522.578,986.33h3.615v3.423h-3.615V986.33z M1522.578,992.56h3.615v16.355h-3.615V992.56z"/>
			<path fill="#FFFFFF" d="M1545.229,1008.061c0,2.47-0.688,4.308-2.077,5.521c-1.375,1.209-3.363,1.819-5.961,1.819
				c-0.818,0-1.645-0.089-2.475-0.257c-0.841-0.174-1.6-0.455-2.282-0.855c-0.682-0.401-1.263-0.922-1.716-1.58
				c-0.469-0.653-0.744-1.46-0.833-2.406h3.614c0.103,0.509,0.281,0.923,0.533,1.239c0.252,0.311,0.555,0.562,0.903,0.741
				c0.347,0.174,0.729,0.293,1.155,0.348c0.418,0.048,0.861,0.078,1.327,0.078c1.448,0,2.521-0.359,3.19-1.077
				c0.676-0.718,1.019-1.747,1.019-3.1v-2.496h-0.066c-0.508,0.909-1.196,1.609-2.077,2.119c-0.874,0.501-1.819,0.76-2.83,0.76
				c-1.306,0-2.412-0.223-3.335-0.683c-0.921-0.454-1.675-1.072-2.279-1.867c-0.592-0.784-1.034-1.699-1.31-2.735
				c-0.275-1.028-0.407-2.137-0.407-3.315c0-1.096,0.161-2.143,0.509-3.129c0.329-0.993,0.82-1.868,1.449-2.616
				c0.633-0.748,1.41-1.34,2.321-1.782c0.921-0.443,1.956-0.664,3.117-0.664c1.029,0,1.987,0.215,2.843,0.651
				c0.868,0.431,1.532,1.108,1.999,2.034h0.066v-2.249h3.602V1008.061z M1537.229,1006.065c0.802,0,1.484-0.161,2.041-0.484
				c0.557-0.329,1.012-0.767,1.357-1.305c0.348-0.539,0.6-1.148,0.756-1.83c0.16-0.684,0.245-1.377,0.245-2.071
				c0-0.699-0.09-1.364-0.258-2.023c-0.173-0.658-0.425-1.233-0.778-1.741c-0.348-0.503-0.795-0.903-1.358-1.195
				c-0.558-0.301-1.227-0.444-2.005-0.444c-0.802,0-1.477,0.163-2.023,0.503c-0.551,0.335-0.992,0.777-1.334,1.316
				c-0.336,0.532-0.576,1.149-0.719,1.831c-0.155,0.683-0.226,1.365-0.226,2.041c0,0.67,0.088,1.335,0.249,1.975
				c0.169,0.646,0.427,1.216,0.773,1.724c0.347,0.502,0.796,0.916,1.334,1.232
				C1535.823,1005.904,1536.463,1006.065,1537.229,1006.065z"/>
			<path fill="#FFFFFF" d="M1548.869,986.33h3.602v8.383h0.065c0.438-0.734,1.103-1.352,1.976-1.849
				c0.873-0.49,1.849-0.741,2.927-0.741c1.795,0,3.202,0.466,4.237,1.389c1.028,0.926,1.543,2.321,1.543,4.175v11.229h-3.603
				v-10.281c-0.036-1.288-0.311-2.221-0.819-2.796c-0.502-0.579-1.3-0.867-2.377-0.867c-0.609,0-1.154,0.108-1.64,0.329
				c-0.483,0.223-0.896,0.526-1.232,0.916c-0.335,0.389-0.604,0.849-0.79,1.376c-0.191,0.533-0.287,1.09-0.287,1.676v9.647h-3.602
				V986.33z"/>
			<path fill="#FFFFFF" d="M1565.373,992.56h2.718v-4.896h3.607v4.896h3.256v2.692h-3.256v8.726c0,0.383,0.013,0.706,0.042,0.987
				c0.036,0.275,0.108,0.503,0.228,0.694c0.115,0.192,0.288,0.329,0.515,0.425c0.24,0.09,0.551,0.144,0.951,0.144
				c0.258,0,0.51-0.006,0.768-0.018c0.245-0.007,0.501-0.048,0.753-0.113v2.782c-0.401,0.048-0.791,0.09-1.173,0.126
				c-0.376,0.047-0.766,0.065-1.168,0.065c-0.95,0-1.711-0.091-2.297-0.27c-0.574-0.173-1.028-0.438-1.359-0.783
				c-0.328-0.354-0.544-0.79-0.662-1.317c-0.115-0.526-0.182-1.124-0.204-1.801v-9.647h-2.718V992.56z"/>
			<path fill="#FFFFFF" d="M1577.827,1004.648h4.397v4.267h-4.397V1004.648z"/>
		</g>
		<g>
			<path fill="#FFFFFF" d="M1811.983,848.022v11.294h-3.471v-11.294h-3.979v-2.719h11.43v2.719H1811.983z M1830.727,859.316v-9.934
				h-0.066l-3.607,9.934h-2.346l-3.603-9.934h-0.072v9.934h-3.262v-14.013h4.627l3.5,9.216l3.5-9.216h4.592v14.013H1830.727z"/>
		</g>
	</g>
</g>
</svg>
